<?xml version="1.0" encoding="utf-8"?>
<!-- Generator: Adobe Illustrator 27.3.1, SVG Export Plug-In . SVG Version: 6.00 Build 0)  -->
<svg version="1.1" xmlns="http://www.w3.org/2000/svg" xmlns:xlink="http://www.w3.org/1999/xlink" x="0px" y="0px"
	 viewBox="0 0 150 42" style="enable-background:new 0 0 150 42;" xml:space="preserve">
<style type="text/css">
	.st0{display:none;}
	.st1{display:inline;fill:#FFFFFF;}
	.st2{display:inline;}
	.st3{fill:none;}
	.st4{fill:#FFFFFF;}
	.st5{font-family:'Poppins-Medium';}
	.st6{font-size:18px;}
</style>
<g id="Layer_1" class="st0">
	<path class="st1" d="M52,27.3l-8.8-8.8c2.2-2.9,3.3-6.6,3-10.2c-0.4-4.6-2.8-9.1-6.8-13.2c-11.5-11.3-25.4-4.7-26-4.5l-0.5,0.2
		l-0.3,0.6c-0.1,0.2-6.9,14.4,4.7,25.9c4.6,4.6,9.7,6.9,14.6,6.9c3.1,0,6.2-1.1,8.8-3.1l8.8,8.8c0.4,0.4,0.9,0.5,1.3,0.5
		c0.4,0,0.9-0.2,1.3-0.5C52.7,29.1,52.7,28.1,52,27.3z M19.8,14.8c-8.6-8.6-5.1-18.6-4.2-21.2c2.6-1.1,12.6-4.3,21.2,4.2
		c3.5,3.5,5.3,7.1,5.7,10.7c0.2,2.8-0.4,5.3-2,7.3l-4.7-4.7V2.6c0-1.1-0.7-1.8-1.8-1.8S32,1.5,32,2.6v4.9l-5.1-5.1
		c-0.7-0.7-1.8-0.7-2.6,0c-0.7,0.7-0.7,1.8,0,2.6l3.5,3.5h-4.9c-1.1,0-1.8,0.7-1.8,1.8c0,1.1,0.7,1.8,1.8,1.8h8.6l1.1,1.1l5.1,5.1
		C32.9,22.2,25.9,20.7,19.8,14.8z"/>
	<path class="st1" d="M64.7,20.8c-1,0-2.2,0-3.4-0.1c-1.3-0.1-2.4-0.2-3.3-0.3v-2.2c2.4,0.2,4.5,0.4,6.1,0.4c1,0,1.8,0,2.4-0.1
		c0.6-0.1,1.1-0.3,1.5-0.5c0.4-0.2,0.6-0.6,0.7-1c0.1-0.4,0.2-1,0.2-1.8c0-0.9,0-1.5-0.1-1.8c-0.1-0.4-0.3-0.6-0.7-0.8
		c-0.3-0.2-0.9-0.3-1.8-0.4l-4.8-0.5c-1.2-0.1-2-0.4-2.6-0.8c-0.6-0.4-1-1-1.2-1.7c-0.2-0.7-0.3-1.6-0.3-2.7c0-1.5,0.3-2.7,0.8-3.5
		c0.5-0.8,1.3-1.3,2.2-1.6c1-0.3,2.3-0.4,3.9-0.4c1.1,0,2.2,0,3.3,0.1c1.1,0.1,2,0.2,2.7,0.3v2.1c-0.7-0.1-1.6-0.2-2.6-0.3
		c-1-0.1-2-0.1-2.9-0.1c-1,0-1.9,0-2.5,0.1c-0.6,0.1-1.1,0.3-1.5,0.5c-0.4,0.2-0.6,0.5-0.8,0.9c-0.1,0.4-0.2,0.9-0.2,1.6
		c0,0.8,0.1,1.3,0.2,1.7c0.1,0.3,0.3,0.6,0.6,0.8c0.3,0.1,0.8,0.3,1.6,0.3l4.7,0.5c1.1,0.1,2,0.3,2.6,0.6c0.6,0.3,1.1,0.8,1.3,1.5
		c0.3,0.7,0.4,1.7,0.4,3.2c0,1.7-0.3,3-0.8,3.8c-0.5,0.8-1.2,1.4-2.1,1.6C67.5,20.7,66.3,20.8,64.7,20.8z M75.9,20.6V1.3h2.4v19.3
		H75.9z M101.4,20.6V5.4h-0.1l-6.6,15.1h-1.8L86.3,5.4h-0.1v15.1H84V1.3h3.2l6.6,15h0.1l6.6-15h3.2v19.3H101.4z M109.4,1.3h8.5
		c1.6,0,2.7,0.3,3.5,0.8c0.8,0.5,1.3,1.2,1.6,2c0.3,0.9,0.4,2,0.4,3.3c0,1.3-0.1,2.4-0.4,3.3c-0.3,0.9-0.8,1.5-1.6,2.1
		c-0.8,0.5-2,0.8-3.6,0.8h-6v7h-2.4V1.3z M116.9,11.3c1.2,0,2.1-0.1,2.7-0.4c0.6-0.3,0.9-0.7,1.1-1.2c0.2-0.5,0.3-1.3,0.3-2.4
		s-0.1-1.8-0.3-2.4c-0.1-0.5-0.5-0.9-1.1-1.1c-0.5-0.3-1.4-0.4-2.6-0.4h-5.2v7.8H116.9z M127.6,20.6V1.3h2.4v16.9h9v2.3H127.6z
		 M142.7,20.6V1.3h12.5v2.2h-10.1v6.2h8.8V12h-8.8v6.4h10.1v2.2H142.7z"/>
	<path class="st1" d="M61.3,20.7l0,0.5h0L61.3,20.7z M58,20.4h-0.5v0.4l0.4,0.1L58,20.4z M58,18.2l0-0.5l-0.5-0.1v0.6H58z
		 M66.4,18.4l0.1,0.5l0,0L66.4,18.4z M67.9,18l0.2,0.4l0,0l0,0L67.9,18z M68.7,17l0.5,0.1l0,0L68.7,17z M68.7,13.4l-0.5,0.1l0,0
		L68.7,13.4z M68,12.6L67.8,13l0,0L68,12.6z M66.3,12.2l-0.1,0.5l0,0L66.3,12.2z M61.5,11.7l-0.1,0.5l0,0L61.5,11.7z M58.9,10.8
		l-0.3,0.4l0,0l0,0L58.9,10.8z M57.7,9.2l-0.5,0.1l0,0l0,0L57.7,9.2z M58.2,3l-0.4-0.3l0,0L58.2,3z M60.4,1.5L60.3,1l0,0L60.4,1.5z
		 M70.3,1.5h0.5V1.1l-0.4-0.1L70.3,1.5z M70.3,3.7l-0.1,0.5l0.6,0.1V3.7H70.3z M67.7,3.4l0,0.5l0,0L67.7,3.4z M62.2,3.5l0.1,0.5l0,0
		L62.2,3.5z M60.7,3.9L61,4.4l0,0l0,0L60.7,3.9z M60,8.1l-0.5,0.2l0,0L60,8.1z M60.6,8.9l-0.2,0.4l0,0l0,0L60.6,8.9z M62.2,9.2
		l0.1-0.5l0,0L62.2,9.2z M66.9,9.7l-0.1,0.5l0,0L66.9,9.7z M69.5,10.3l0.2-0.5l0,0L69.5,10.3z M70.8,11.8L70.4,12l0,0L70.8,11.8z
		 M70.5,18.9l0.4,0.3l0,0L70.5,18.9z M68.4,20.4l0.1,0.5l0,0L68.4,20.4z M64.7,20.3c-1,0-2.2,0-3.4-0.1l-0.1,1
		c1.3,0.1,2.4,0.1,3.5,0.1V20.3z M61.3,20.2C60.1,20.1,59,20,58,19.9l-0.1,1c1,0.1,2.1,0.2,3.4,0.3L61.3,20.2z M58.5,20.4v-2.2h-1
		v2.2H58.5z M57.9,18.7c2.4,0.2,4.5,0.4,6.1,0.4v-1c-1.6,0-3.6-0.1-6-0.4L57.9,18.7z M64,19c1,0,1.8,0,2.4-0.1l-0.1-1
		C65.8,18,65,18,64,18V19z M66.5,18.9c0.6-0.1,1.2-0.3,1.7-0.5l-0.5-0.9c-0.3,0.2-0.8,0.3-1.3,0.4L66.5,18.9z M68.2,18.4
		c0.5-0.3,0.8-0.7,1-1.3l-1-0.3c-0.1,0.3-0.2,0.5-0.5,0.7L68.2,18.4z M69.1,17.1c0.1-0.5,0.2-1.1,0.2-1.9h-1c0,0.7-0.1,1.3-0.2,1.6
		L69.1,17.1z M69.3,15.2c0-0.9,0-1.6-0.2-2l-1,0.3c0.1,0.3,0.1,0.8,0.1,1.7H69.3z M69.2,13.2c-0.1-0.5-0.5-0.9-0.9-1.1L67.8,13
		c0.2,0.1,0.3,0.3,0.4,0.5L69.2,13.2z M68.2,12.1c-0.4-0.2-1.1-0.3-1.9-0.4l-0.1,1c0.8,0.1,1.3,0.2,1.6,0.3L68.2,12.1z M66.3,11.7
		l-4.8-0.5l-0.1,1l4.8,0.5L66.3,11.7z M61.6,11.2c-1.1-0.1-1.9-0.4-2.4-0.7l-0.6,0.8c0.7,0.5,1.7,0.8,2.9,0.9L61.6,11.2z M59.2,10.4
		c-0.5-0.4-0.8-0.8-1-1.4l-1,0.3c0.2,0.8,0.7,1.4,1.4,1.9L59.2,10.4z M58.2,9.1c-0.2-0.6-0.3-1.5-0.3-2.6h-1c0,1.1,0.1,2.1,0.3,2.8
		L58.2,9.1z M57.9,6.5c0-1.5,0.3-2.5,0.7-3.2l-0.8-0.6c-0.6,0.9-0.9,2.2-0.9,3.7H57.9z M58.6,3.3c0.5-0.7,1.1-1.1,2-1.4l-0.3-1
		c-1.1,0.3-1.9,0.9-2.5,1.8L58.6,3.3z M60.6,1.9c0.9-0.2,2.2-0.4,3.8-0.4v-1c-1.6,0-3,0.1-4,0.4L60.6,1.9z M64.3,1.6
		c1.1,0,2.2,0,3.3,0.1l0.1-1c-1.1-0.1-2.2-0.1-3.3-0.1V1.6z M67.6,1.7c1.1,0.1,2,0.2,2.6,0.3l0.2-1c-0.7-0.1-1.6-0.2-2.7-0.3
		L67.6,1.7z M69.8,1.5v2.1h1V1.5H69.8z M70.4,3.2c-0.7-0.1-1.6-0.2-2.7-0.3l-0.1,1c1,0.1,1.9,0.1,2.6,0.2L70.4,3.2z M67.7,2.9
		c-1.1-0.1-2-0.1-2.9-0.1v1c0.9,0,1.8,0,2.9,0.1L67.7,2.9z M64.7,2.8c-1.1,0-1.9,0-2.6,0.1l0.1,1c0.6-0.1,1.4-0.1,2.4-0.1V2.8z
		 M62.2,3c-0.7,0.1-1.2,0.3-1.7,0.5L61,4.3c0.3-0.2,0.7-0.3,1.3-0.4L62.2,3z M60.5,3.5c-0.5,0.3-0.8,0.7-1,1.2l1,0.3
		c0.1-0.2,0.2-0.4,0.5-0.6L60.5,3.5z M59.5,4.7c-0.1,0.4-0.2,1-0.2,1.7h1c0-0.7,0.1-1.1,0.1-1.5L59.5,4.7z M59.3,6.4
		c0,0.8,0.1,1.4,0.2,1.8l1-0.3c-0.1-0.3-0.1-0.8-0.1-1.5H59.3z M59.5,8.3c0.2,0.5,0.5,0.8,0.9,1l0.5-0.9c-0.2-0.1-0.3-0.3-0.4-0.5
		L59.5,8.3z M60.4,9.3c0.4,0.2,1,0.3,1.7,0.4l0.1-1c-0.7-0.1-1.2-0.2-1.4-0.3L60.4,9.3z M62.1,9.7l4.7,0.5l0.1-1l-4.7-0.5L62.1,9.7z
		 M66.8,10.2c1.1,0.1,1.9,0.3,2.4,0.5l0.4-0.9c-0.7-0.3-1.6-0.5-2.8-0.6L66.8,10.2z M69.3,10.8c0.5,0.2,0.8,0.6,1.1,1.2l0.9-0.4
		c-0.3-0.8-0.8-1.4-1.6-1.8L69.3,10.8z M70.4,12c0.2,0.6,0.4,1.6,0.4,3h1c0-1.5-0.1-2.6-0.4-3.4L70.4,12z M70.7,15
		c0,1.7-0.3,2.8-0.7,3.5l0.8,0.5c0.6-1,0.9-2.3,0.9-4.1H70.7z M70,18.6c-0.5,0.7-1.1,1.2-1.8,1.4l0.3,1c1-0.3,1.8-0.9,2.4-1.8
		L70,18.6z M68.2,20c-0.8,0.2-2,0.3-3.5,0.3v1c1.5,0,2.8-0.1,3.7-0.4L68.2,20z M75.9,20.6h-0.5v0.5h0.5V20.6z M75.9,1.3V0.8h-0.5
		v0.5H75.9z M78.3,1.3h0.5V0.8h-0.5V1.3z M78.3,20.6v0.5h0.5v-0.5H78.3z M76.4,20.6V1.3h-1v19.3H76.4z M75.9,1.8h2.4v-1h-2.4V1.8z
		 M77.8,1.3v19.3h1V1.3H77.8z M78.3,20.1h-2.4v1h2.4V20.1z M101.4,20.6h-0.5v0.5h0.5V20.6z M101.4,5.4h0.5V4.9h-0.5V5.4z M101.3,5.4
		V4.9H101l-0.1,0.3L101.3,5.4z M94.7,20.6v0.5H95l0.1-0.3L94.7,20.6z M92.9,20.6l-0.5,0.2l0.1,0.3h0.3V20.6z M86.3,5.4l0.5-0.2
		l-0.1-0.3h-0.3V5.4z M86.2,5.4V4.9h-0.5v0.5H86.2z M86.2,20.6v0.5h0.5v-0.5H86.2z M84,20.6h-0.5v0.5H84V20.6z M84,1.3V0.8h-0.5v0.5
		H84z M87.2,1.3l0.5-0.2l-0.1-0.3h-0.3V1.3z M93.8,16.3l-0.5,0.2l0.1,0.3h0.3V16.3z M93.9,16.3v0.5h0.3l0.1-0.3L93.9,16.3z
		 M100.5,1.3V0.8h-0.3L100,1.1L100.5,1.3z M103.7,1.3h0.5V0.8h-0.5V1.3z M103.7,20.6v0.5h0.5v-0.5H103.7z M101.9,20.6V5.4h-1v15.1
		H101.9z M101.4,4.9h-0.1v1h0.1V4.9z M100.8,5.2l-6.6,15.1l0.9,0.4l6.6-15.1L100.8,5.2z M94.7,20.1h-1.8v1h1.8V20.1z M93.4,20.4
		L86.8,5.2l-0.9,0.4l6.6,15.1L93.4,20.4z M86.3,4.9h-0.1v1h0.1V4.9z M85.7,5.4v15.1h1V5.4H85.7z M86.2,20.1H84v1h2.3V20.1z
		 M84.5,20.6V1.3h-1v19.3H84.5z M84,1.8h3.2v-1H84V1.8z M86.7,1.5l6.6,15l0.9-0.4l-6.6-15L86.7,1.5z M93.8,16.8h0.1v-1h-0.1V16.8z
		 M94.4,16.5l6.6-15L100,1.1l-6.6,15L94.4,16.5z M100.5,1.8h3.2v-1h-3.2V1.8z M103.2,1.3v19.3h1V1.3H103.2z M103.7,20.1h-2.4v1h2.4
		V20.1z M109.4,1.3V0.8h-0.5v0.5H109.4z M121.3,2.1l-0.3,0.4l0,0L121.3,2.1z M122.9,4.1l-0.5,0.1l0,0L122.9,4.1z M122.9,10.7
		l0.5,0.1l0,0L122.9,10.7z M121.3,12.8l-0.3-0.4l0,0L121.3,12.8z M111.8,13.6v-0.5h-0.5v0.5H111.8z M111.8,20.6v0.5h0.5v-0.5H111.8z
		 M109.4,20.6h-0.5v0.5h0.5V20.6z M119.6,11l0.2,0.5l0,0L119.6,11z M120.7,9.8l-0.5-0.2l0,0L120.7,9.8z M120.7,5.1l-0.5,0.1l0,0l0,0
		L120.7,5.1z M119.6,3.9l-0.2,0.5l0,0l0,0L119.6,3.9z M111.8,3.5V3h-0.5v0.5H111.8z M111.8,11.3h-0.5v0.5h0.5V11.3z M109.4,1.8h8.5
		v-1h-8.5V1.8z M117.8,1.8c1.5,0,2.6,0.2,3.3,0.7l0.5-0.8c-0.9-0.6-2.2-0.8-3.8-0.8V1.8z M121.1,2.5c0.7,0.4,1.2,1,1.4,1.8l1-0.3
		c-0.3-1-0.9-1.8-1.8-2.3L121.1,2.5z M122.5,4.2c0.2,0.8,0.4,1.9,0.4,3.2h1c0-1.4-0.1-2.6-0.4-3.5L122.5,4.2z M122.8,7.4
		c0,1.3-0.1,2.3-0.4,3.1l1,0.3c0.3-0.9,0.4-2.1,0.4-3.4H122.8z M122.5,10.6c-0.2,0.7-0.7,1.3-1.4,1.8l0.5,0.8
		c0.9-0.6,1.5-1.4,1.8-2.3L122.5,10.6z M121,12.4c-0.7,0.4-1.8,0.7-3.3,0.7v1c1.6,0,2.9-0.3,3.8-0.9L121,12.4z M117.8,13.1h-6v1h6
		V13.1z M111.3,13.6v7h1v-7H111.3z M111.8,20.1h-2.4v1h2.4V20.1z M109.9,20.6V1.3h-1v19.3H109.9z M116.9,11.8c1.2,0,2.2-0.1,2.9-0.4
		l-0.4-0.9c-0.5,0.2-1.3,0.3-2.5,0.3V11.8z M119.8,11.4c0.7-0.3,1.1-0.8,1.4-1.5l-1-0.3c-0.1,0.4-0.4,0.7-0.8,0.9L119.8,11.4z
		 M121.2,9.9c0.2-0.6,0.3-1.4,0.3-2.5h-1c0,1-0.1,1.8-0.2,2.2L121.2,9.9z M121.4,7.4c0-1.1-0.1-1.9-0.3-2.5l-1,0.3
		c0.1,0.4,0.2,1.2,0.2,2.2H121.4z M121.2,4.9c-0.2-0.7-0.7-1.2-1.3-1.5l-0.4,0.9c0.4,0.2,0.7,0.5,0.8,0.8L121.2,4.9z M119.8,3.5
		C119.2,3.2,118.2,3,117,3v1c1.2,0,2,0.1,2.4,0.3L119.8,3.5z M117,3h-5.2v1h5.2V3z M111.3,3.5v7.8h1V3.5H111.3z M111.8,11.8h5.2v-1
		h-5.2V11.8z M127.6,20.6h-0.5v0.5h0.5V20.6z M127.6,1.3V0.8h-0.5v0.5H127.6z M130,1.3h0.5V0.8H130V1.3z M130,18.2h-0.5v0.5h0.5
		V18.2z M139,18.2h0.5v-0.5H139V18.2z M139,20.6v0.5h0.5v-0.5H139z M128.1,20.6V1.3h-1v19.3H128.1z M127.6,1.8h2.4v-1h-2.4V1.8z
		 M129.5,1.3v16.9h1V1.3H129.5z M130,18.7h9v-1h-9V18.7z M138.5,18.2v2.3h1v-2.3H138.5z M139,20.1h-11.4v1H139V20.1z M142.7,20.6
		h-0.5v0.5h0.5V20.6z M142.7,1.3V0.8h-0.5v0.5H142.7z M155.2,1.3h0.5V0.8h-0.5V1.3z M155.2,3.5V4h0.5V3.5H155.2z M145.1,3.5V3h-0.5
		v0.5H145.1z M145.1,9.7h-0.5v0.5h0.5V9.7z M153.9,9.7h0.5V9.2h-0.5V9.7z M153.9,12v0.5h0.5V12H153.9z M145.1,12v-0.5h-0.5V12H145.1
		z M145.1,18.3h-0.5v0.5h0.5V18.3z M155.2,18.3h0.5v-0.5h-0.5V18.3z M155.2,20.6v0.5h0.5v-0.5H155.2z M143.2,20.6V1.3h-1v19.3H143.2
		z M142.7,1.8h12.5v-1h-12.5V1.8z M154.7,1.3v2.2h1V1.3H154.7z M155.2,3h-10.1v1h10.1V3z M144.6,3.5v6.2h1V3.5H144.6z M145.1,10.2
		h8.8v-1h-8.8V10.2z M153.4,9.7V12h1V9.7H153.4z M153.9,11.5h-8.8v1h8.8V11.5z M144.6,12v6.4h1V12H144.6z M145.1,18.8h10.1v-1h-10.1
		V18.8z M154.7,18.3v2.2h1v-2.2H154.7z M155.2,20.1h-12.5v1h12.5V20.1z"/>
	<g id="Layer_3" class="st2">
	</g>
</g>
<g id="Layer_2">
	<rect x="0.5" class="st3" width="149" height="42"/>
	<text transform="matrix(1 0 0 1 0.8501 27.6602)" class="st4 st5 st6">if (Mike) {CODE}</text>
</g>
</svg>
