<?xml version="1.0" encoding="UTF-8"?>
<svg xmlns="http://www.w3.org/2000/svg" viewBox="0 0 607.87 145.28">
  <g id="Layer_1" data-name="Layer 1">
    <path d="m123.57,24.24c-13.38-13.38-35.07-13.38-48.45,0l-8.07,8.07-8.08-8.08c-13.38-13.38-35.07-13.38-48.45,0-13.38,13.38-13.38,35.07,0,48.45l16.15,16.15,17.23-17.23c3.81,1.02,8.04.03,11.03-2.96,4.46-4.46,4.46-11.69,0-16.15-4.46-4.46-11.69-4.46-16.15,0-2.99,2.99-3.97,7.22-2.96,11.03l-9.16,9.15-8.07-8.07c-8.92-8.92-8.92-23.38,0-32.3,8.92-8.92,23.38-8.92,32.3,0l16.15,16.15,16.15-16.15c8.92-8.92,23.38-8.92,32.3,0,8.92,8.92,8.92,23.38,0,32.3l-48.45,48.45-8.07-8.07-8.07,8.07,16.15,16.15,56.52-56.52c13.38-13.38,13.38-35.07,0-48.45h0ZM30.72,92.87l16.15,16.15,49.53-49.53c3.81,1.02,8.04.03,11.03-2.96,4.46-4.46,4.46-11.69,0-16.15-4.46-4.46-11.69-4.46-16.15,0-2.99,2.99-3.97,7.22-2.96,11.03l-41.45,41.45-8.07-8.07-8.07,8.07h0Zm12.11-36.33c2.23-2.23,5.84-2.23,8.07,0,2.23,2.23,2.23,5.84,0,8.07-2.23,2.23-5.84,2.23-8.07,0-2.23-2.23-2.23-5.84,0-8.07h0Zm60.56-12.11c-2.23-2.23-5.84-2.23-8.07,0-2.23,2.23-2.23,5.84,0,8.07,2.23,2.23,5.84,2.23,8.07,0,2.23-2.23,2.23-5.84,0-8.07h0Z" fill="none" fill-rule="evenodd" stroke="#fff" stroke-miterlimit="10"/>
  </g>
  <g id="text">
    <text transform="translate(137.06 96.63)" fill="#fff" font-family="Lato-Medium, Lato" font-size="65" font-weight="500"><tspan x="0" y="0">i</tspan><tspan x="15.83" y="0" letter-spacing="-.02em">f</tspan><tspan x="37.54" y="0" xml:space="preserve"> (</tspan><tspan x="71.43" y="0" letter-spacing="0em">M</tspan><tspan x="131.56" y="0">i</tspan><tspan x="147.39" y="0" letter-spacing="-.03em">k</tspan><tspan x="179.01" y="0" letter-spacing="-.02em">e</tspan><tspan x="211.93" y="0">) </tspan><tspan x="245.83" y="0" letter-spacing="-.02em">{</tspan><tspan x="264.09" y="0" letter-spacing="-.01em">C</tspan><tspan x="306.5" y="0">ODE}</tspan></text>
  </g>
</svg>