<?xml version="1.0" encoding="UTF-8"?>
<svg id="Layer_2" data-name="Layer 2" xmlns="http://www.w3.org/2000/svg" viewBox="0 0 48.26 42">
  <defs>
    <style>
      .cls-1, .cls-2 {
        fill: #fff;
      }

      .cls-2 {
        font-family: Orbitron-Black, Orbitron;
        font-size: 1.36px;
        font-weight: 800;
        isolation: isolate;
        letter-spacing: .01em;
      }
    </style>
  </defs>
  <g id="Layer_1-2" data-name="Layer 1">
    <g id="Layer_2-2" data-name="Layer 2">
      <g id="circuit_heart" data-name="circuit heart">
        <path class="cls-1" d="m47.67,10.22c.3,0,.55-.24.55-.55s-.24-.55-.55-.55-.55.24-.55.55c0,.3.24.54.55.55Zm0-.84c.16,0,.29.13.29.29s-.13.29-.29.29-.29-.13-.29-.29h0c0-.16.13-.29.29-.29h0Z"/>
        <path class="cls-1" d="m34.35,24.68c-.3,0-.55.24-.55.55s.24.55.55.55.55-.24.55-.55-.24-.55-.55-.55Zm0,.84c-.16,0-.29-.13-.29-.29s.13-.29.29-.29.29.13.29.29h0c0,.16-.13.29-.29.29h0Z"/>
        <path class="cls-1" d="m17.75,24.97c-.24.07-.41.29-.41.54v.02c0,.31.26.56.57.55.31,0,.56-.26.55-.57h0v-.02c0-.24-.17-.45-.41-.52v-.87l-.06-.05-.11-.11-.72-.72-1.43-1.43-.54-.55s-.03-.01-.05-.01h-4.7c-.07-.24-.29-.41-.54-.41h-.02c-.31,0-.56.26-.55.57,0,.31.26.56.57.55h.02c.15,0,.29-.07.39-.18.06-.06.1-.14.13-.23h4.59s.02,0,.03,0l.46.46,1.43,1.43.71.71.06.06.03.03s0,.03,0,.05v.7Zm-7.66-3.43s-.11.08-.17.08h0c-.14,0-.25-.12-.24-.26,0-.13.11-.24.24-.24h0c.14,0,.25.1.26.24,0,.07-.02.13-.07.18Zm7.81,3.72c.14,0,.25.1.26.24h0c0,.14-.11.26-.24.26-.14,0-.25-.1-.26-.24h0c0-.14.1-.26.24-.26h0Z"/>
        <path class="cls-1" d="m34.35,22.89c-.3,0-.55.24-.55.55s.24.55.55.55.55-.24.55-.55-.24-.55-.55-.55Zm0,.84c-.16,0-.29-.13-.29-.29,0-.16.13-.29.29-.29.16,0,.29.13.29.29h0c0,.16-.13.29-.29.29Z"/>
        <path class="cls-1" d="m48.25,17.19c-.07-.24-.29-.41-.54-.41h-.02c-.24,0-.45.17-.52.4l-2.38-.04h-.62s-.31-.02-.31-.02h-.15s-.08,0-.08,0h-.09s-.71.03-.71.03h-.35s-.09.02-.09.02h-.06v.03l.02.18.02.18v.09s0,.02,0,.02h0s0,.02,0,.02l.03.03.26.24c.17.16.35.32.52.47l.97.77.97.77.48.38.2.16.04.03s0,.04,0,.05v.1l-.09.03s-.05.02-.08.03c-.15.1-.24.28-.24.46v.02c.01.31.28.55.58.54.3-.01.53-.26.54-.56v-.02c0-.15-.07-.29-.18-.39-.03-.03-.07-.06-.11-.08-.04-.03-.08-.05-.12-.06v-.18s0-.06,0-.1l-.08-.06-.28-.22-.48-.38-.97-.77-.97-.77-.36-.28-.17-.14s-.03-.06-.03-.1v-.11s-.02-.11-.02-.11c-.01-.03.02-.01.04-.02h.28s.45.01.45.01l1.21.02,2.38.04c.07.24.29.41.54.41h.02c.15,0,.29-.07.39-.18.06-.06.1-.14.13-.23.01-.06.02-.11.02-.17,0-.05,0-.09-.01-.14Zm-2.05,3.84s.08.11.08.17h0c0,.15-.11.26-.25.26-.14,0-.25-.11-.25-.25h0c0-.14.1-.25.24-.26.07,0,.13.02.18.07h0Zm1.69-3.51s-.11.08-.17.08h0c-.14,0-.25-.12-.24-.26,0-.13.11-.24.24-.24h0c.14,0,.25.1.26.24,0,.07-.02.13-.07.18h0Z"/>
        <path class="cls-1" d="m47.67,11.92c.3,0,.55-.24.55-.55s-.24-.55-.55-.55-.55.24-.55.55c0,.3.24.54.55.55Zm0-.84c.16,0,.29.13.29.29,0,.16-.13.29-.29.29s-.29-.13-.29-.29h0c0-.16.13-.29.29-.29h0Z"/>
        <path class="cls-1" d="m34.35,21.18c-.3,0-.55.24-.55.55s.24.55.55.55.55-.24.55-.55-.24-.55-.55-.55h0Zm0,.84c-.16,0-.29-.13-.29-.29s.13-.29.29-.29.29.13.29.29h0c0,.16-.13.29-.29.29Z"/>
        <path class="cls-1" d="m44.23,20.53l-1.22-1.49-.31-.37-.16-.19-.1-.12-.02-.03v-.02s-.02-.01-.03,0h-1.81s-.04,0-.05,0v-1.51s0-.01,0-.02l.02-.02.03-.03.33-.33.34-.34.06-.06.02-.02h0s5.42,0,5.42,0c.05.18.22.3.4.3h.02c.23-.01.41-.21.4-.44-.01-.22-.19-.4-.41-.4h-.02c-.18,0-.34.13-.39.3h-5.51l-.04.04-.11.11-.34.34-.36.35-.05.05-.03.03h-.01s0,.03,0,.03v1.83s0,0,.02,0h1.96s.02.02.03.03l.05.07.15.18.31.37,1.22,1.5.31.38s0,.06,0,.09v3.54h.23v-3.69s0-.03,0-.04l-.36-.44Zm2.81-4.81s.08-.06.13-.06h0c.1,0,.19.08.19.19,0,.05-.02.09-.05.13-.03.04-.08.06-.13.06h0c-.1,0-.19-.08-.19-.18,0-.05.02-.1.05-.14Z"/>
        <path class="cls-1" d="m39.12,2.33c.01.3.26.54.56.54h.02s.06,0,.09-.01l1.24,1.35.69.75.17.19.07.07s.05.04.05.07v5.03s0,.02-.01.03l-.02.03-.04.05-.22.29-.46.58-3.24,4.14-1.58,2.01s-.08,0-.12,0h-8.53s-.21-.02-.21,0v1.59h.31v-1.26c.1-.01.2-.02.29-.02h8.39s.02,0,.02,0l1.67-2.13,3.24-4.14.46-.58.23-.3.07-.09.04-.05s.03-.03.02-.05v-5.24s0-.02-.02-.03l-.03-.03-.05-.06-.11-.12-.17-.19-.69-.75-1.19-1.29s0,0,.01-.01c.06-.06.1-.14.13-.23.01-.06.02-.11.02-.17,0-.05,0-.09-.02-.14-.07-.24-.29-.41-.54-.41h-.02c-.31.01-.55.27-.54.58,0,0,0,0,0,0h0Zm.38-.19s.11-.08.17-.08h0c.14,0,.25.1.26.24,0,.07-.02.13-.07.18-.05.05-.11.08-.17.08h0c-.14,0-.25-.11-.25-.25,0-.06.02-.12.07-.17h0Z"/>
        <path class="cls-1" d="m44.95,5.63c-.31.01-.55.27-.54.58,0,.25.18.46.42.52v4.85s0,.02,0,.03l-.42.51-1.32,1.63-.4.49-.2.25s0,0,0,0h4.49c.07.24.29.41.54.41h.02c.31,0,.56-.26.55-.57,0-.31-.26-.56-.57-.55h-.02c-.15,0-.29.07-.39.18-.06.06-.1.14-.13.23h-3.68c-.06,0-.12,0-.17,0l.11-.14.23-.28,1.17-1.45.48-.59s.01-.03.01-.05v-4.95c.09-.03.17-.08.24-.15.06-.06.1-.14.13-.23.01-.06.02-.11.02-.17,0-.05,0-.09-.02-.14-.07-.24-.29-.41-.54-.41h-.02Zm2.4,8.55s.11-.08.17-.08h0c.13,0,.25.11.25.24,0,.14-.1.25-.24.26,0,0,0,0,0,0h0c-.14,0-.25-.1-.26-.24,0-.07.02-.13.07-.18h0Zm-2.13-8c0,.07-.02.13-.07.18-.04.05-.11.08-.17.08h0c-.14,0-.25-.12-.24-.26,0-.13.11-.24.24-.24h0c.14,0,.25.11.26.24h0Z"/>
        <path class="cls-1" d="m41.9,23.78l-.1-.1-.34-.33-.63-.61-.47-.46-.07-.07-.02-.02s-.02,0-.02,0h-1.91s-.01-.01-.02-.02l-.03-.04-.16-.17-.17-.17c-.07-.04-.04-.12-.04-.18v-2.33c.24-.07.41-.29.41-.54v-.02c0-.31-.26-.56-.57-.55-.31,0-.56.26-.55.57v.02c0,.15.07.29.18.39.06.06.14.1.23.13v2.58s0,.02,0,.02l.02.02.06.06.22.23.22.23.06.06s.02.03.03.03h1.93s0,0,.01,0h.01s.04.05.04.05l.42.41.63.61.29.28.06.05s.01,0,.01.01v2.9s0,.04,0,.05l-.03.05-.07.12-.63,1.08-.18.31-.07.11-.03.05s-.01.02-.02.03h-2.51s-.02.02-.03.02l-.1.1-.33.35-.09.1-.05.05s-.04.03-.03.05v.86s.06.04.09.06l.18.12.17.12c-.07.29.11.59.4.66.29.07.59-.11.66-.4.07-.29-.11-.59-.4-.66-.18-.04-.37,0-.51.13l-.14-.09-.1-.07s-.04-.02-.05-.04v-.58s.01-.02.02-.03l.03-.03.05-.05.28-.3.05-.06s0-.01.01-.01h2.55s.02-.03.03-.05l.06-.1.12-.2.18-.31.63-1.08.09-.15.05-.09s.01-.03.01-.05v-3.13s-.01-.02-.02-.02Zm-4.14-4.78c-.14,0-.25-.1-.26-.24,0,0,0,0,0,0h0c0-.15.12-.26.26-.25.13,0,.24.11.24.24h0c0,.14-.1.25-.24.26h0Zm.67,11.33c.16,0,.29.13.29.29s-.13.29-.29.29-.29-.13-.29-.29h0c0-.16.13-.29.29-.29,0,0,0,0,0,0h0Z"/>
        <path class="cls-1" d="m41.97,2.35c.18.12.42.06.54-.12.12-.18.06-.42-.12-.54-.18-.12-.42-.06-.54.12,0,0,0,0,0,0-.12.18-.06.42.12.54Zm.05-.43c.06-.09.17-.11.26-.06s.11.17.06.26h0c-.06.08-.17.11-.26.05-.08-.06-.11-.17-.06-.25h0Z"/>
        <path class="cls-1" d="m43.16,21.96l-1.1-1.37-.27-.34-.15-.19-.09-.11s0,0,0,0h-1.94s-.02-.02-.02-.03v-3.68s0-.07,0-.1l.07-.08.37-.43.74-.87,2.1-2.46.26-.31.08-.1s.03-.03.04-.05v-5.59s.01-.01.02-.02l.09-.07.47-.41.83-.71c.13.09.31.09.45,0,.02-.01.04-.03.05-.04h.01c.17-.17.19-.43.03-.6s-.42-.19-.59-.03h-.01s-.03.04-.04.05c-.1.12-.12.3-.05.44l-.83.71-.47.41-.15.13s-.03.02-.03.03v5.61s-.01.02-.02.03l-.05.05-.26.31-2.1,2.46-.74.86-.37.43-.12.14c0,.06,0,.12,0,.18v3.9s-.01.07.03.06h1.97s.05,0,.08,0l.05.06.12.15.27.34,1.1,1.37.3.38s0,.06,0,.09v3.5h.23v-3.64s0-.03,0-.04l-.35-.44Zm1.6-17.42h0c.08-.07.19-.06.26,0,.07.08.07.19-.01.27h0c-.08.07-.19.07-.26,0-.03-.04-.05-.09-.05-.14,0-.05.02-.1.06-.13h0Z"/>
        <path class="cls-1" d="m41.97,3.58c.18.12.42.06.54-.12.12-.18.06-.42-.12-.54-.18-.12-.42-.06-.54.12,0,0,0,0,0,0-.12.18-.06.42.12.54Zm.05-.43c.06-.09.17-.11.26-.06s.11.17.06.26h0c-.06.08-.17.11-.26.05-.08-.06-.11-.17-.06-.25h0Z"/>
        <path class="cls-1" d="m36.01,32.39v-3.45s0-.06,0-.09l.32-.35.87-.94.19-.2.04-.04s.04,0,.05,0h2.13c.17.05.2-.14.28-.24l.18-.31.05-.09.03-.05v-.02s.01-.02.01-.03v-1.92c-.07-.08-.16-.16-.23-.23l-.2-.19-.12-.12-.03-.03s-.02-.02-.03-.02h-1.96s-.03-.02-.04-.03l-.04-.04-.08-.08-.39-.41-.78-.82-.08-.08s-.03-.03-.04-.04v-2.66s0,0,0,0h-5.48s0,.01,0,.02v6.62s0,.06,0,.08l-.06.06-.3.33-.64.7-.13.14-.03.03s-.03,0-.04,0h-10.56c-.07-.24-.29-.41-.54-.41h-.02c-.31,0-.56.26-.55.57,0,.31.26.56.57.55h.02c.24,0,.45-.17.52-.41h10.67s.05,0,.07,0l.05-.05.2-.21.64-.7.34-.37.1-.11s0-.1,0-.15v-6.38s0-.01,0-.01h4.81s.04,0,.06,0v2.47s.04.05.07.07l.14.14.79.82.39.41.12.13.06.07.03.03s0,.01.02.01h1.98s.02.02.04.03l.07.07.18.17.07.07s.05.04.07.07v1.71s0,.02,0,.03v.03s-.04.05-.04.05l-.15.26c-.04.06-.06.17-.16.14h-2.19s0,0,0,0l-.07.07-.25.27-.87.94-.4.43s0,.02-.01.04v3.63c-.29.09-.45.39-.37.68s.39.45.68.37.45-.39.37-.68c-.05-.18-.19-.32-.37-.37h0Zm-17.48-4.17s-.11.08-.17.08h0c-.13,0-.25-.11-.25-.24,0-.14.1-.25.24-.26h0c.14,0,.25.1.26.24,0,.07-.02.13-.07.18h0Zm17.32,4.98c-.16,0-.29-.13-.29-.29,0-.16.13-.29.29-.29.16,0,.29.13.29.29h0c0,.16-.13.29-.29.29h0Z"/>
        <path class="cls-1" d="m36.89,31.22v-2.02s0-.08,0-.12l.18-.2.58-.63.12-.13.03-.03s.02-.02.03-.02h2.37s.04,0,.05,0l.03-.05.11-.19.36-.62.21-.36.07-.11s0-.02,0-.03v-2.52h0s0-.02,0-.02l-.02-.02-.04-.04-.54-.52-.25-.24-.15-.14-.08-.08-.04-.04h-1.87s-.07,0-.1,0l-.15-.16-.39-.41-.36-.38s-.03-.02-.03-.04v-3.18s0,0-.01,0h-7.24s0,.05,0,.08v7.19s0,.01-.01.02l-.03.03-.32.35-.3.33h-7.45c-.07-.24-.29-.41-.54-.41h-.02c-.31,0-.56.26-.55.57,0,.31.26.56.57.55h.02c.24,0,.45-.17.52-.41h7.58l.39-.43.37-.4.05-.06s.02-.02.03-.03v-7.03s0-.03,0-.04h6.61s.03,0,.03.01v2.98s.01.03.02.04l.03.03.42.44.39.41.24.25s0,0,0,0h1.94s.02,0,.03,0l.02.02.05.04.11.1.25.24.47.46s.04.03.04.05v2.26s0,.05,0,.07l-.04.06-.2.35-.33.57-.06.11-.02.03s-.02,0-.03,0h-2.36s-.01,0-.01,0l-.02.03-.05.05-.18.19-.58.63-.26.29s0,.02,0,.02v2.26c-.28.1-.43.42-.33.7.1.28.42.43.7.33.28-.1.43-.42.33-.7-.06-.17-.21-.3-.39-.34Zm-15.59-3.99s-.11.08-.17.08h0c-.14,0-.25-.11-.25-.25,0-.14.11-.25.25-.25h0c.14,0,.25.1.26.24,0,.07-.02.13-.07.18h0Zm15.47,4.81c-.16,0-.29-.13-.29-.29,0-.16.13-.29.29-.29.16,0,.29.13.29.29h0c0,.16-.13.29-.29.29Z"/>
        <path class="cls-1" d="m37.47,3.27c0,.3.26.54.56.54h.02c.07,0,.13-.02.2-.05l1.14,1.24.62.67.15.17s.08.08.11.12v3.74s-.02.03-.03.04l-.06.08-.17.22-.34.44-2.73,3.48-1.32,1.69s-.05.02-.09.03h-8.81c-.07-.24-.29-.41-.54-.41h-.02c-.31,0-.56.26-.55.57,0,.31.26.56.57.55h.02c.24,0,.45-.17.52-.41h8.91c.05,0,.13.02.15-.05l1.4-1.79,2.73-3.48.34-.44.17-.22.11-.14s.04-.05.05-.07v-3.96s0-.02-.02-.03l-.02-.03-.05-.05-.1-.11-.15-.17-.62-.67-1.13-1.22s.06-.1.08-.16c.01-.06.02-.11.02-.17,0-.05,0-.09-.02-.14-.07-.24-.29-.41-.54-.41h-.02c-.31.01-.55.27-.54.58,0,0,0,0,0,0h0Zm-11.1,12.75s-.11.08-.17.08h0c-.14,0-.25-.11-.25-.25,0-.06.02-.12.07-.17.04-.05.11-.08.17-.08h0c.14,0,.25.1.26.24,0,.07-.02.13-.07.18h0Zm11.48-12.94s.11-.08.17-.08h0c.14,0,.25.1.26.24,0,.07-.02.13-.07.18-.05.05-.11.08-.17.08h0c-.14,0-.25-.11-.25-.25,0-.06.02-.12.07-.17h0Z"/>
        <path class="cls-1" d="m43.14,3.58c.18.12.42.06.54-.12.12-.18.06-.42-.12-.54-.18-.12-.42-.06-.54.12,0,0,0,0,0,0-.12.18-.06.42.12.54Zm.05-.43c.03-.05.09-.09.16-.09.1,0,.18.08.19.18,0,.04-.01.07-.03.1-.06.08-.17.11-.26.05-.08-.06-.11-.17-.05-.25h0Z"/>
        <path class="cls-1" d="m38.73,1.43v1.28c0,.09,0,.2,0,.3l.2.22,1.38,1.5.69.75.13.14v4.38s0,.02,0,.03l-.02.02-.04.05-.79,1.01-2.98,3.81-.75.95-.37.48-.15.19-.02.02s-.01.02-.02.01h-7.03c-.07-.24-.29-.41-.54-.41h-.02c-.31,0-.56.26-.55.57,0,.31.26.56.57.55h.02c.24,0,.45-.17.52-.41h7.18s.03-.01.04-.02l.03-.04.22-.28.37-.48.75-.95,2.98-3.81.81-1.03.06-.08.03-.04s0-.02,0-.02v-4.62l-.21-.23-.69-.75-1.38-1.5-.12-.13c0-.05,0-.11,0-.17v-1.29c.09-.03.18-.08.25-.15.06-.06.1-.14.13-.23.01-.06.02-.11.02-.17,0-.05,0-.09-.02-.14-.07-.24-.29-.41-.54-.41h-.03c-.31,0-.55.26-.54.57,0,.25.18.47.42.53Zm-10.11,15.47s-.11.08-.17.08h0c-.14,0-.25-.11-.25-.25s.11-.25.25-.25h0c.14,0,.25.1.26.24,0,.07-.02.13-.07.18ZM38.69.72s.11-.08.17-.08h0c.14,0,.25.1.26.24,0,.07-.02.13-.07.18-.05.05-.11.08-.17.08h0c-.14,0-.25-.11-.25-.25,0-.06.02-.12.07-.17Z"/>
        <path class="cls-1" d="m46.03,10.22c.3,0,.55-.24.55-.55s-.24-.55-.55-.55-.55.24-.55.55.24.55.55.55Zm0-.84c.16,0,.29.13.29.29s-.13.29-.29.29-.29-.13-.29-.29h0c0-.16.13-.29.29-.29h0Z"/>
        <path class="cls-1" d="m46.03,10.82c-.3,0-.55.24-.55.55s.24.55.55.55.55-.24.55-.55c0-.3-.24-.54-.55-.55Zm0,.84c-.16,0-.29-.13-.29-.29s.13-.29.29-.29.29.13.29.29h0c0,.16-.13.29-.29.29h0Z"/>
        <path class="cls-1" d="m24.33,14.79h-11.43s-.03.03-.05.04l-.18.18-.59.59-.62.62s-.03.03-.05.05v3.3s.02.01.03.01h5.8c.07.24.29.41.54.41h.02c.31,0,.56-.26.55-.57s-.26-.56-.57-.55h-.02c-.24,0-.45.17-.52.41h-5.5s-.02,0-.02,0v-2.87l.03-.03.55-.55.59-.59.11-.11s.02-.02.03-.02h11.72v-4.3s-.05,0-.07,0h-6.69s-.03-.04-.03-.07v-3.43s0,0,.02,0h3.7c.07.24.29.41.54.41h.02c.15,0,.29-.07.39-.18.06-.06.1-.14.13-.23.01-.06.02-.11.02-.17,0-.05,0-.09-.02-.14-.07-.24-.29-.41-.54-.41h-.02c-.15,0-.29.07-.39.18-.06.06-.1.14-.13.23h-3.99s-.04,0-.03.02v3.99c0,.05-.03.14.06.12h6.7s.03,0,.04,0v3.68h-.1Zm-6.74,4.48s.11-.08.17-.08h0c.14,0,.25.11.25.25,0,.06-.02.12-.07.17-.04.05-.11.08-.17.08h0c-.14,0-.25-.1-.26-.24,0-.07.02-.13.07-.18h0Zm4.42-12.3s.11-.08.17-.08h0c.14,0,.25.1.26.24,0,.14-.1.25-.24.26h0c-.13,0-.25-.11-.25-.24,0-.07.02-.13.07-.18Z"/>
        <path class="cls-1" d="m4.78,4.67h0c.3,0,.55-.25.55-.55,0-.3-.25-.55-.55-.55-.3,0-.55.25-.55.55,0,.3.25.55.55.55Zm-.21-.75c.05-.05.13-.09.2-.09.16,0,.29.13.29.29,0,.08-.03.15-.08.2-.05.05-.13.09-.2.09v.13-.13c-.16,0-.29-.13-.29-.29,0-.07.03-.15.08-.2h0Z"/>
        <path class="cls-1" d="m3.96,8.21h-.02c-.31.01-.55.28-.54.58.01.3.26.53.56.54h.02c.15,0,.29-.07.39-.18.06-.06.1-.14.13-.23h1.36s.02-.02.02-.02l.05-.05.32-.32,1.16-1.16.55-.55s.01-.03.01-.05V2.07c.1-.03.19-.08.26-.16.06-.06.1-.14.13-.23.01-.06.02-.11.02-.17,0-.05,0-.09-.02-.14-.07-.24-.29-.41-.54-.41h-.02c-.31.01-.55.27-.54.58,0,.24.17.45.4.52v4.59s0,.02,0,.03l-.46.46-1.15,1.16-.26.26-.03.03s0,0-.01.01h-1.23c-.07-.24-.29-.4-.54-.4Zm.18.73s-.11.08-.17.08h0c-.14,0-.25-.12-.24-.26,0-.13.11-.24.24-.24h0c.14,0,.25.1.26.24,0,.07-.02.13-.07.18h0ZM7.56,1.54c0-.14.1-.25.24-.26h0c.14,0,.25.1.26.24,0,.07-.02.13-.07.18-.01.01-.03.03-.05.04h-.27c-.07-.04-.11-.12-.11-.2Z"/>
        <path class="cls-1" d="m22.61,35.88h0c.3,0,.54-.25.54-.55s-.25-.54-.55-.54c-.3,0-.54.25-.54.55,0,.3.24.54.54.54Zm0-.84c.16,0,.29.12.3.28,0,.16-.12.29-.28.3,0,0-.02,0-.03,0v.13-.13c-.16,0-.29-.14-.28-.3,0-.15.13-.27.28-.27Z"/>
        <path class="cls-1" d="m6.58,10.9s.03-.02.04-.03l.08-.08.14-.14,1.88-1.88.61-.61.3-.3.16-.16.1-.1.05-.05.02-.02s0-.02,0-.03V1.66s-.01-.05.02-.04h4.6s.08-.07.11-.11l.2-.2.15-.15c.07.04.16.05.24.05h.02c.15,0,.29-.07.39-.18.06-.06.1-.14.13-.23.01-.06.02-.11.02-.17,0-.05,0-.09-.02-.14-.07-.24-.29-.41-.54-.41h-.02c-.31.01-.55.27-.54.58,0,0,0,0,0,0,0,.1.03.2.09.28l-.13.13-.16.16s-.04.04-.06.06h-4.8v6.09h-.01s-.03.04-.03.04l-.05.05-.15.15-.3.3-.61.61-1.88,1.88-.09.09-.04.04s-.01.02-.02.02H1.97v-3.68s0-.02,0-.01h2.53c.07.24.29.41.54.41h.02c.31,0,.56-.26.55-.57s-.26-.56-.57-.55h-.02c-.24,0-.45.17-.52.41H1.67s-.02,0-.01,0v4.31h4.92ZM15.09.49s.11-.08.17-.08h0c.14,0,.25.1.26.24,0,.07-.02.13-.07.18-.05.05-.11.08-.17.08h0s-.07,0-.1-.02l-.13-.13s-.02-.06-.02-.09c0-.07.02-.13.07-.18ZM4.86,6.58s.11-.08.17-.08h0c.14,0,.25.11.25.25s-.11.25-.25.25h0c-.14,0-.25-.1-.26-.24,0-.07.02-.13.07-.18h0Z"/>
        <path class="cls-1" d="m24.32,35.9h0c.3,0,.54-.24.55-.54,0-.3-.24-.55-.54-.56h0c-.3,0-.55.24-.56.54,0,.3.24.55.54.56h0Zm0-.84c.16,0,.29.13.29.29,0,.16-.13.29-.29.29h0v.13-.13c-.16,0-.29-.13-.29-.29,0-.16.13-.29.29-.29Z"/>
        <path class="cls-1" d="m25.09,40.9v-2.84s0-.02,0-.03l-.35-.35-.63-.63-.1-.1-.05-.05-.02-.02s-.01-.02-.03-.02h-5.33s-.04-.01-.05-.03l-.04-.04-.46-.46c.12-.22.08-.49-.09-.67h-.01c-.22-.23-.58-.22-.79,0-.21.22-.21.58.01.79h.02c.11.12.25.17.4.16.09,0,.17-.03.25-.07l.49.49.08.08.04.04h0s0,.01.01,0h5.35s.08.07.11.11l.62.62.26.26c0,.05,0,.1,0,.15v2.58c-.3.09-.47.4-.38.69.07.24.29.4.54.4h.02c.15,0,.29-.07.39-.18.06-.06.1-.14.13-.23.01-.06.02-.11.02-.17,0-.05,0-.09-.02-.14-.05-.19-.2-.33-.38-.38Zm-7.37-4.66c-.09.1-.25.11-.35.01h0s0,0,0,0c-.1-.1-.1-.25,0-.35.04-.05.11-.08.17-.08.07,0,.13.02.18.07h0c.1.09.11.25.01.35Zm7.4,5.37s-.11.08-.17.08h0c-.13,0-.25-.11-.25-.24,0-.14.1-.25.24-.26,0,0,0,0,0,0h0c.14,0,.25.1.26.24,0,.07-.02.13-.07.18Z"/>
        <path class="cls-1" d="m14.45,6.01c.06-.06.1-.14.13-.23.01-.06.02-.11.02-.17,0-.05,0-.09-.02-.14-.07-.24-.29-.41-.54-.41h-.02c-.31.01-.55.27-.54.58,0,.24.17.45.4.51v3.63s0,.03,0,.04l.31.51.67,1.12.03.05c-.17.18-.2.46-.07.67v.02c.17.26.52.34.78.18s.34-.51.18-.77v-.02c-.14-.2-.39-.3-.62-.23l-.03-.05-.67-1.12-.27-.45s0-.07,0-.1v-3.48c.1-.03.19-.08.26-.16Zm.72,5.68c.12-.08.27-.04.35.07,0,0,0,0,0,0h0c.07.13.03.28-.09.35-.05.03-.12.04-.18.03-.06-.01-.12-.05-.16-.11h0c-.07-.12-.04-.27.07-.35h0Zm-1.06-5.82h-.13c-.13-.03-.21-.17-.18-.31.01-.04.03-.08.06-.11.05-.05.11-.08.17-.08h0c.14,0,.25.11.25.25,0,.11-.07.21-.18.24h0Z"/>
        <path class="cls-1" d="m24.34,34.26h0c.3,0,.55-.24.55-.54,0-.3-.24-.55-.54-.55h0c-.3,0-.55.24-.55.54,0,.3.23.55.54.55,0,0,0,0,0,0h0Zm0-.84c.16,0,.28.14.28.3,0,.15-.13.27-.28.28v.13-.13c-.16,0-.29-.13-.29-.29,0-.16.13-.28.29-.28Z"/>
        <path class="cls-1" d="m6.42,4.66h0c.3,0,.55-.25.55-.55,0-.3-.25-.55-.55-.55-.3,0-.55.25-.55.55,0,.3.25.55.55.55Zm-.21-.75c.05-.05.13-.09.2-.09.16,0,.29.13.29.29,0,.08-.03.15-.08.2-.05.05-.13.09-.2.09v.13s0-.13,0-.13c-.16,0-.29-.13-.29-.29,0-.08.03-.15.08-.2h0Z"/>
        <path class="cls-1" d="m22.64,34.23h0c.3,0,.55-.24.55-.54,0-.3-.24-.55-.54-.55h0c-.3,0-.55.24-.55.54,0,.3.23.55.54.55,0,0,0,0,0,0h0Zm0-.84c.16,0,.28.14.28.3,0,.15-.13.27-.28.28v.13-.13c-.16,0-.29-.14-.28-.3,0-.15.13-.27.28-.27Z"/>
        <path class="cls-1" d="m15.78,31.79v-7.09s0-.06-.02-.07l-.76-.76-1.09-1.09-.04-.04-.02-.02s-.02,0-.03,0h-4.99v-10.32s0-.03,0-.03l.02-.02.05-.05.13-.13.27-.27,2.13-2.13.47-.47.14-.14.04-.04s.03-.02.03-.04v-4.83s0-.01,0-.01h4.7c.05.18.22.3.4.3h.02c.23,0,.42-.2.41-.43,0-.23-.2-.42-.43-.41h-.02c-.18,0-.34.13-.39.3h-4.93s0,.01,0,.02v4.96s0,.02-.01.02l-.02.02-.1.1-.47.47-2.13,2.13-.27.27-.14.14-.09.09-.04.04s0,0,0,.01v10.67c.15,0,.31,0,.46,0h4.68s.02,0,.03.01l.02.02,1.06,1.06.7.7s.01.03.01.04v7.03c-.2.08-.29.31-.21.51.08.2.31.3.51.21.2-.08.29-.31.21-.51-.05-.12-.15-.21-.28-.23h0Zm1.28-27.8s.08-.06.13-.06h0c.1,0,.18.08.19.18,0,.05-.02.1-.05.13-.03.04-.08.06-.13.06h0c-.1,0-.19-.08-.19-.18,0-.05.02-.1.05-.13Zm-1.37,28.36c-.1,0-.18-.08-.18-.18s.08-.18.18-.18c.1,0,.18.08.18.18,0,.1-.08.18-.18.18Z"/>
        <path class="cls-1" d="m11,26.84h.02c.31,0,.56-.26.55-.57,0-.31-.26-.56-.57-.55h-.02c-.15,0-.29.07-.39.18-.06.06-.1.14-.13.23h-4.09v-14.47s-.02-.02-.04-.02h-2.29s-2.92-.02-2.92-.02v.15s0-.09-.02-.14c-.07-.24-.29-.41-.54-.41h-.02C.24,11.24,0,11.49,0,11.8s.26.56.57.55h.02c.15,0,.29-.07.39-.18.06-.06.1-.14.13-.23.01-.06.02-.11.02-.17v.15h2.92s1.46.01,1.46.01h.54s.03,0,.02.01v14.47s.01,0,.02,0h4.38c.07.24.29.4.54.41Zm-.18-.73s.11-.08.17-.08h0c.14,0,.25.11.25.25,0,.06-.02.12-.07.17-.04.05-.11.08-.17.08h0c-.14,0-.25-.1-.26-.24,0-.07.02-.13.07-.18h0ZM.75,11.96s-.11.08-.17.08h0c-.13,0-.25-.11-.25-.24,0-.14.1-.25.24-.26h0c.14,0,.25.1.26.24,0,.07-.02.13-.07.18Z"/>
        <path class="cls-1" d="m14.71,34.11v-8.61s0-.07-.03-.09l-.91-.91-.41-.41-.06-.06-.03-.03-.02-.02s-.01,0-.02,0h-5.26s-.05,0-.05-.02v-12.11s0-.01.01-.01l.03-.03.06-.06.31-.31,2.49-2.49.24-.24.14-.14.08-.08s0-.02,0-.02V3.39s0-.03,0-.03h6.06c.05.18.22.31.4.3h.02c.23,0,.42-.2.41-.43,0-.23-.2-.42-.43-.41h-.02c-.18,0-.34.13-.39.3h-6.3v5.19s0,.04,0,.06l-.04.04-.1.1-.24.24-2.49,2.49-.31.31-.1.1-.05.05s-.02.02-.02.03v12.45s0,.01,0,.01h5.45s0,0,.01,0l.03.03.04.04.39.39.85.85s.01.03.01.05v8.55c-.21.06-.32.28-.26.49.04.14.15.24.29.27.03,0,.06,0,.08,0,.22,0,.39-.17.39-.39,0-.17-.11-.32-.27-.37h0Zm2.91-30.99s.08-.06.13-.06h0c.1,0,.19.08.19.19,0,.05-.02.09-.05.13-.03.04-.08.06-.13.06h0c-.1,0-.19-.08-.19-.18,0-.05.02-.1.05-.13h0Zm-2.85,31.41c-.02.1-.12.16-.22.14-.1-.02-.16-.12-.14-.22.02-.08.09-.14.18-.14.01,0,.03,0,.04,0,.1.02.16.12.14.22Z"/>
        <path class="cls-1" d="m1.22,17.43c-.22,0-.39.18-.39.39,0,.22.18.39.39.39s.39-.18.39-.39c0,0,0,0,0,0,0-.22-.18-.39-.39-.39Zm0,.58c-.1,0-.19-.08-.19-.18,0-.1.08-.19.18-.19.1,0,.19.08.19.18,0,0,0,0,0,0,0,.1-.08.18-.18.18Z"/>
        <path class="cls-1" d="m12.15,27.35h-2.69c-.07-.24-.29-.41-.54-.41h-.02c-.31,0-.56.26-.55.57,0,.31.26.56.57.55h.02c.24,0,.45-.17.52-.41h2.38s0,.02,0,.03v1.97s-.06.07-.1.1l-.26.26-.44.44c-.09-.06-.2-.1-.31-.1h-.02c-.31,0-.56.26-.55.57,0,.31.26.56.57.55h.02c.15,0,.29-.07.39-.18.06-.06.1-.14.13-.23.01-.06.02-.11.02-.17,0-.05,0-.09-.02-.14,0-.02-.02-.05-.03-.07l.45-.45.28-.28c.05-.06.12-.11.17-.17v-2.43s0,0,0,0Zm-3.04.33s-.11.08-.17.08h0c-.14,0-.25-.11-.25-.25s.11-.25.25-.25h0c.14,0,.25.1.26.24,0,.07-.02.13-.07.18Zm1.82,3.41s-.11.08-.17.08h0c-.14,0-.25-.11-.25-.25s.11-.25.25-.25h0c.14,0,.25.1.26.24,0,.07-.02.13-.07.18Z"/>
        <path class="cls-1" d="m14.11,26.19l-.16-.16-.54-.54-.38-.38-.21-.21s-.04-.05-.06-.05h-5.46s0-.05,0-.07v-13.33s.02-.02.03-.03l.06-.06,2.75-2.75.24-.24.07-.07.04-.04s0-.01,0-.02V2.71h5.27c.1.03.14-.07.2-.13l.74-.9c.17.08.37.03.49-.12h0c.05-.07.08-.15.08-.22,0-.03,0-.07,0-.1-.03-.23-.24-.39-.47-.36-.11.01-.2.07-.27.15h0c-.11.16-.11.35-.01.5l-.72.87s-.05.09-.11.07h-5.43s0,.02,0,.03v5.63s0,.02,0,.03l-.02.02-.04.04-.22.22-2.75,2.75-.11.11s-.04.03-.05.05v13.6s0,.08,0,.12h5.6s.02.02.04.03l.16.16.38.38.54.54.11.11s.02.02.02.03v5.22s-.08.06-.12.09l-.34.26-.51.39s-.1-.07-.16-.08c-.03,0-.06,0-.08,0-.22,0-.39.17-.39.39,0,.18.13.35.31.38.03,0,.06,0,.08,0,.21,0,.39-.17.39-.39,0-.04,0-.08-.02-.11l.52-.39.34-.26c.07-.05.15-.11.21-.16v-5.43s-.03-.03-.04-.04ZM16.72,1.19h0c.07-.09.19-.1.27-.03.08.06.09.18.03.26h0c-.06.08-.18.1-.26.03-.04-.03-.07-.07-.07-.12,0-.05,0-.1.04-.14h0Zm-3.83,31.44c-.02.1-.12.16-.22.14-.1-.02-.16-.12-.14-.22.02-.08.09-.14.18-.14.01,0,.03,0,.04,0,.02,0,.04.01.05.02l.08.11s0,.06,0,.09Z"/>
        <path class="cls-1" d="m1.22,16.06c-.22,0-.39.18-.39.39,0,.22.18.39.39.39s.39-.18.39-.39c0,0,0,0,0,0,0-.22-.18-.39-.39-.39Zm0,.58c-.1,0-.19-.08-.19-.18,0-.1.08-.19.18-.19.1,0,.19.08.19.18,0,0,0,0,0,0,0,.1-.08.18-.18.18Z"/>
        <path class="cls-1" d="m23.68,39.78v-.82c0-.07,0-.14,0-.2l-.14-.14-.4-.4-.12-.12-.06-.06-.03-.03s-.03,0-.04,0h-1.67c-.07-.24-.29-.41-.54-.41h-.02c-.31,0-.56.26-.55.57,0,.31.26.56.57.55h.02c.24,0,.45-.17.52-.41h1.58l.05.05.07.07.37.37.08.08s0,.08,0,.11v.78c-.25.07-.41.3-.4.56.01.3.26.54.56.54h.02c.15,0,.29-.07.39-.18.06-.06.1-.14.13-.23.01-.06.02-.11.02-.17,0-.05,0-.09-.02-.14-.05-.18-.2-.33-.38-.38Zm-2.82-1.45s-.11.08-.17.08h0c-.14,0-.25-.11-.25-.25,0-.06.02-.12.07-.17.04-.05.11-.08.17-.08h0c.14,0,.25.1.26.24,0,.07-.02.13-.07.18h0Zm2.85,2.16s-.11.08-.17.08h0c-.14,0-.25-.11-.25-.25,0-.14.11-.25.25-.25h0c.14,0,.25.1.26.24,0,.07-.02.13-.07.18h0Z"/>
        <path class="cls-1" d="m2.52,16.59l.35-.35.4-.4.23-.23s.03-.02.03-.03v-.34c.18-.05.3-.22.3-.4v-.02c0-.23-.2-.42-.43-.41-.23,0-.42.2-.41.43v.02c0,.18.13.34.3.39v.24s-.01.01-.01.02l-.17.17-.4.4-.41.41s0,.02-.01.04v3.58c-.21.06-.32.28-.26.49s.28.32.49.26c.21-.06.32-.28.26-.49-.04-.12-.13-.22-.26-.26v-3.49s0-.02,0-.02Zm.75-1.6s-.06-.08-.06-.13h0c0-.11.08-.19.18-.19.1,0,.19.08.19.18,0,0,0,0,0,0h0c0,.1-.08.19-.18.19-.05,0-.1-.02-.13-.05h0Zm-.68,5.49c0,.1-.08.18-.18.18s-.18-.08-.18-.18.08-.18.18-.18.18.08.18.18h0Z"/>
        <path class="cls-1" d="m4.93,13.19h0s-2.6-.01-2.6-.01c0,0-.01,0-.02.01l-.02.02-.03.03-.07.07-.12.12-.42.42-.66.66c-.08-.04-.17-.06-.26-.06h-.02c-.31,0-.56.26-.55.57s.26.56.57.55h.02c.15,0,.29-.07.39-.18.06-.06.1-.14.13-.23.01-.06.02-.11.02-.17,0-.05,0-.09-.02-.14-.01-.04-.03-.09-.05-.13l.65-.65.42-.42.09-.09s.05-.05.08-.07h2.15s.01,0,0,0v2.83l-.11.11-.62.62-.16.16-.09.09s-.03.03-.05.05v4.96c-.24.07-.41.29-.41.54v.02c0,.31.26.56.57.55.31,0,.56-.26.55-.57v-.02c0-.24-.17-.45-.41-.52v-4.84s.02-.02.03-.03l.05-.05.13-.13.62-.62.2-.2c0-.09,0-.19,0-.28v-2.98Zm-4,1.98s-.11.08-.17.08h0c-.14,0-.25-.11-.25-.25,0-.14.11-.25.25-.25h0c.14,0,.25.1.26.24,0,.07-.02.13-.07.18Zm2.98,7.5s.08.11.08.17h0c0,.15-.12.26-.26.25-.13,0-.24-.11-.24-.24h0c0-.14.1-.25.24-.26.07,0,.13.02.18.07h0Z"/>
        <path class="cls-1" d="m34.41,27.35h-2.96s-.03.03-.05.05l-.35.35-.62.62-.93.93-.2.2-.02.02s-.02,0-.03,0h-9.15s-.02,0-.02.01l-.02.02-.04.04-.08.08-.13.13-.48.48-.86.86c-.09-.06-.19-.08-.29-.09h-.02c-.31,0-.56.26-.55.57,0,.31.26.56.57.55h.02c.15,0,.29-.07.39-.18.06-.06.1-.14.13-.23.01-.06.02-.11.02-.17,0-.05,0-.09-.02-.14,0-.03-.02-.06-.03-.09l.87-.87.48-.48.11-.11s.06-.06.09-.08h9.13s.04,0,.05,0l.04-.04.27-.27.93-.93.62-.62.28-.28.03-.03h2.52v5.19s-.01.02-.02.03l-.1.1-2.19,2.19-.24.24c-.22-.12-.49-.08-.67.09h-.01c-.21.24-.21.59.01.81.22.21.58.21.79-.01h.01c.17-.19.2-.46.08-.67l.24-.24,2.19-2.19.17-.17.02-.02h.01v-5.64Zm-16.04,4.43s-.11.08-.17.08h0c-.14,0-.25-.11-.25-.25,0-.14.11-.25.25-.25h0c.14,0,.25.1.26.24,0,.07-.02.13-.07.18h0Zm13.09,4.29h0c-.1.1-.25.1-.35.01-.1-.09-.11-.25-.01-.35h0c.09-.1.25-.11.35-.01s.11.25.01.35Z"/>
        <path class="cls-1" d="m27.4,11.4h-.01c-.22-.23-.58-.22-.79,0-.21.22-.2.57.01.78h.01c.18.18.44.21.65.09l.04.04,2.03,2.03.44.44s.03.01.04.01h3.89c.07.24.29.41.54.41h.02c.15,0,.29-.07.39-.18.06-.06.1-.14.13-.23.01-.06.02-.11.02-.17,0-.05,0-.09-.02-.14-.07-.24-.29-.41-.54-.41h-.02c-.24,0-.45.17-.52.41h-3.78s-.02,0-.02,0l-.36-.36-2.03-2.03-.04-.04c.12-.22.08-.49-.09-.67Zm-.21.57s-.11.08-.17.08c-.07,0-.13-.02-.18-.07h0c-.1-.1-.1-.26,0-.36s.25-.1.35,0h0c.1.09.11.25.01.35h0Zm6.88,2.52s.11-.08.17-.08h0c.14,0,.25.1.26.24,0,.14-.1.25-.24.26h0c-.14,0-.25-.11-.25-.25,0-.06.02-.12.07-.17h0Z"/>
        <path class="cls-1" d="m32.71,23.98c.3,0,.55-.24.55-.55s-.24-.55-.55-.55-.55.24-.55.55.24.55.55.55Zm0-.84c.16,0,.29.13.29.29,0,.16-.13.29-.29.29-.16,0-.29-.13-.29-.29h0c0-.16.13-.29.29-.29h0Z"/>
        <path class="cls-1" d="m25.57,19.01c.07-.03.14-.04.21-.04.03,0,.06,0,.1,0v-1.86s-11.31-.01-11.31-.01c-.07-.24-.29-.41-.54-.41h-.02c-.31,0-.56.26-.55.57s.26.56.57.55h.02c.15,0,.29-.07.39-.18.06-.06.1-.14.13-.23h11s0,1.6,0,1.6Zm-11.35-1.58s-.11.08-.17.08h0c-.14,0-.25-.11-.25-.25,0-.14.11-.25.25-.25h0c.14,0,.25.1.26.24,0,.07-.02.13-.07.18Z"/>
        <path class="cls-1" d="m33.82.78c.17,0,.32-.11.37-.28h2.88s.05,0,.08,0l.3.28.14.13c.05.03.03.09.04.14v1.01s0,.02,0,.03l-.02.02-.47.44h-.02s-.01.02-.02.02h-1.54v6.15c-.18.05-.3.22-.3.4v.02c0,.23.2.41.44.41,0,0,0,0,0,0,.23,0,.41-.19.41-.42v-.02c0-.18-.13-.34-.3-.39V2.82s.01,0,.01,0h1.41s.03-.04.03-.04l.57-.54.04-.04s0-.04,0-.05v-1.11c0-.09.03-.2-.07-.25l-.18-.17-.37-.34s-.02,0-.03,0h-3.03c-.06-.21-.28-.32-.49-.26-.21.06-.32.28-.26.49.05.16.2.27.37.27h0Zm1.99,8.22s.06.08.06.13h0c0,.11-.09.19-.19.19-.1,0-.17-.08-.18-.18h0c0-.1.08-.19.18-.19.05,0,.1.02.13.05ZM33.82.2c.1,0,.18.08.18.18,0,.1-.08.18-.18.18s-.18-.08-.18-.18.08-.18.18-.18h0Z"/>
        <path class="cls-1" d="m32.71,25.77c.3,0,.55-.24.55-.55s-.24-.55-.55-.55-.55.24-.55.55.24.55.55.55Zm0-.84c.16,0,.29.13.29.29,0,.16-.13.29-.29.29-.16,0-.29-.13-.29-.29h0c0-.16.13-.29.29-.29Z"/>
        <path class="cls-1" d="m32.76,3.43s0-.03-.01-.03h-3.94s0,0,0,.01l-.06.12-.12.25-.19.39-.38.78-1.53,3.13-.36.75s-.02.01-.03.01h-6.02c-.07-.24-.29-.41-.54-.41h-.02c-.31,0-.56.26-.55.57s.26.56.57.55h.02c.15,0,.29-.07.39-.18.06-.06.1-.14.13-.23h6.2s.05,0,.06-.02l.45-.91,1.53-3.13.38-.78.19-.39.07-.14.03-.07s0,0,0,0h3.44s0,0,0,.02v7.45s0,.04-.02.03h-2.37v-3.65c.24-.07.41-.29.41-.54v-.02c-.01-.31-.27-.55-.58-.54-.3.01-.53.26-.54.56v.02c0,.24.17.45.41.52v3.95s0,0,0,.01h2.97s.02-.03.03-.06V3.43Zm-12.98,5.69s-.02.04-.04.06c-.05.05-.11.08-.17.08h0c-.14,0-.25-.11-.25-.25,0-.14.11-.25.25-.25h0c.1,0,.19.05.23.14v.23Zm9.96-1.91s-.08-.11-.08-.17h0c0-.15.11-.26.25-.26s.25.11.25.25h0c0,.14-.1.25-.24.26-.07,0-.13-.02-.18-.07h0Z"/>
        <path class="cls-1" d="m32.71,22.28c.3,0,.55-.24.55-.55s-.24-.55-.55-.55-.55.24-.55.55.24.55.55.55Zm0-.84c.16,0,.29.13.29.29,0,.16-.13.29-.29.29s-.29-.13-.29-.29c0-.16.13-.29.29-.29h0Z"/>
        <path class="cls-1" d="m37.86,9.88l-1.87,2.37-.92,1.17-.09.11s-.09,0-.13,0h-4.59s-.04-.06-.04-.06l-1.33-1.33-.17-.17c.12-.22.08-.49-.09-.67h-.01c-.22-.23-.58-.22-.79,0-.21.22-.21.58.01.79h.01c.18.18.44.21.65.09l.17.17.98.98.25.25.15.15.08.08.02.02s.02,0,.03,0h4.95s.02,0,.03,0l.15-.19.95-1.2,1.87-2.37.36-.45s0-.03,0-.04v-3.51c.1-.03.19-.08.26-.16.06-.06.1-.14.13-.23.01-.06.02-.11.02-.17,0-.05,0-.09-.02-.14-.07-.24-.29-.41-.54-.41h-.02c-.31,0-.55.27-.54.58,0,.24.17.45.41.52v3.35s0,.06,0,.09l-.29.38Zm-9.45,2c-.09.1-.25.11-.35.01,0,0,0,0,0,0h0c-.1-.1-.1-.26,0-.36s.25-.1.35,0h0c.1.09.11.25.01.35Zm9.66-6.34c0-.07.02-.13.07-.18.05-.05.11-.08.18-.08h0c.14,0,.25.1.26.24,0,.07-.02.13-.07.18-.05.05-.11.08-.17.08h0c-.14,0-.25-.11-.25-.24Z"/>
        <path class="cls-1" d="m25.95,6.87c.2.11.45.04.56-.15h0c.09-.17.07-.37-.06-.5l1.98-3.27.27-.45s.01,0,.02,0h.49s1.16-.02,1.16-.02l2.13-.03c.06.21.28.32.49.26.21-.06.32-.28.26-.49s-.28-.32-.49-.26c-.12.04-.22.13-.26.26l-2.13.03-1.16.02h-.29s-.17,0-.17,0h-.14s-.03,0-.04.01l-.33.55-1.98,3.28c-.18-.05-.37.03-.47.19h0c-.11.22-.04.47.16.59,0,0,0,0,0,0h0Zm6.94-4.75c.1,0,.19.08.19.18,0,.1-.08.19-.18.19-.08,0-.16-.05-.18-.13v-.1c.02-.08.09-.14.18-.14Zm-6.89,4.29h0c.05-.09.17-.11.26-.06.08.05.11.16.07.24h0c-.05.1-.17.13-.26.08-.09-.05-.12-.17-.07-.26h0Z"/>
        <path class="cls-1" d="m30.91,34.99l1.61-1.61.4-.4.2-.2.11-.11.06-.06s.05-.04.04-.07v-4.12h-1.75s-.06.06-.09.09l-.16.16-.29.29-.91.91-.46.46-.09.09s-.03.03-.04.04h-8.96s-.04.02-.05.03l-.05.05-.09.09-.15.15-.29.29-1.17,1.17-2.24,2.25c-.2-.08-.43,0-.52.21-.08.2,0,.43.21.52.2.08.43,0,.52-.21.05-.12.04-.26-.03-.37l2.23-2.23,1.17-1.17.29-.29.15-.15.05-.05.03-.03s.02-.02.03-.02h8.99s.02-.03.02-.03l.04-.04.13-.13.46-.46.91-.91.29-.29.13-.13s.04-.04.05-.05h1.43v3.8s-.02.03-.03.04l-.04.04-.09.09-.2.2-.4.4-1.62,1.61-1.37,1.37c-.16-.09-.37-.06-.5.07h-.01c-.16.18-.16.45.01.61.17.16.43.16.6-.01h.01c.08-.09.12-.2.11-.31,0-.07-.02-.13-.05-.19l1.37-1.38Zm-14.52.02c-.1,0-.18-.08-.18-.18,0-.1.08-.18.18-.18.1,0,.18.08.18.18,0,.1-.08.18-.18.19Zm12.92,1.68h0c-.07.08-.19.08-.26,0-.08-.07-.08-.19-.01-.27,0,0,0,0,0,0h0c.08-.07.2-.06.26.01.06.07.06.17,0,.24h0Z"/>
        <path class="cls-1" d="m26.13,34.29h0c.3,0,.55-.24.55-.54,0-.3-.24-.55-.54-.55h0c-.3,0-.55.24-.56.54s.24.55.54.56Zm0-.84c.16,0,.29.12.3.28,0,.16-.12.29-.28.3,0,0-.02,0-.03,0v.13-.13c-.16,0-.29-.14-.28-.3,0-.15.13-.27.28-.27h0Z"/>
        <path class="cls-1" d="m26.12,35.93c.3,0,.54-.24.55-.54,0-.3-.24-.55-.54-.56h0c-.3,0-.55.24-.56.54s.24.55.54.56h.01Zm-.29-.55c0-.16.13-.29.29-.28.08,0,.15.03.2.09.05.05.08.13.08.21,0,.16-.13.28-.29.28v.13-.13c-.16,0-.29-.13-.29-.29h0Z"/>
        <path class="cls-1" d="m22.76,6.17c.06.04.14.06.21.06.08,0,.15-.02.22-.07l1.95,1.38c-.09.2,0,.43.19.52.18.08.39.02.5-.15.12-.18.06-.42-.12-.54-.14-.09-.32-.08-.45.02h0s-1.94-1.39-1.94-1.39c.09-.2,0-.43-.19-.52s-.43,0-.52.19c-.08.18-.02.39.14.49h0Zm2.58,1.44c.03-.05.09-.09.16-.09.1,0,.19.08.18.19,0,.03-.01.07-.03.1-.06.08-.17.11-.26.05-.09-.06-.11-.17-.05-.26h0Zm-2.53-1.87c.03-.05.09-.09.16-.09.1,0,.18.08.18.18,0,.01,0,.03,0,.04h0l-.08.12c-.06.04-.14.04-.2,0-.09-.06-.11-.17-.05-.26h0Z"/>
        <path class="cls-1" d="m21.08,5.67l-.05.05s-.03.03-.04.04l-.12.02-1.85.29h-.04c-.08-.16-.26-.26-.44-.23h-.02c-.23.04-.38.26-.34.49.04.23.26.38.48.34h.02c.18-.04.31-.18.34-.36h.05s1.85-.3,1.85-.3l.2-.03s.1-.1.14-.14l.23-.23.34-.34c.05.02.11.04.16.04.22,0,.39-.18.39-.39s-.18-.39-.39-.39-.39.18-.39.39c0,.07.02.14.05.2l-.33.34-.23.23Zm-2.33.68s-.07.07-.12.08h0c-.1.01-.2-.06-.21-.16-.01-.1.05-.19.15-.21h0c.1-.02.2.05.22.15.01.05,0,.1-.03.14Zm3.23-1.63c.1,0,.18.08.18.18s-.08.18-.18.18c-.1,0-.18-.08-.18-.18s.08-.18.18-.18h0Z"/>
        <path class="cls-1" d="m16.52,5.35v7.11s.01,0,.02,0h6.39s0,0,0,0v1.01s.01.07-.03.05h-9.61c-.08.02-.11-.05-.16-.1l-.39-.39-.68-.68c.12-.22.08-.49-.09-.67h-.01c-.23-.23-.58-.22-.79,0-.21.22-.2.57.01.78h.02c.18.18.44.21.65.09l.67.68.41.41c.09.07.15.21.29.17h10.01s.02,0,.01,0v-1.67s0-.02,0-.02h-6.29c-.17.05-.11-.13-.12-.23v-6.26h1.83s.02,0,.02-.01l.02-.02.04-.04.08-.08.13-.13.48-.48.9-.9c.1.08.22.12.34.12h.02c.15,0,.29-.07.39-.18.06-.06.1-.14.13-.23.01-.06.02-.11.02-.17,0-.05,0-.09-.02-.14-.07-.24-.29-.41-.54-.41h-.02c-.31,0-.55.26-.54.57,0,.06.01.12.03.18l-.94.94-.48.48-.11.11s-.06.06-.09.08h-2.01Zm-4.76,6.92c-.09.1-.25.11-.35.01,0,0,0,0,0,0h0c-.1-.1-.1-.26,0-.35.09-.1.25-.11.35-.01h0c.1.09.11.25.01.35ZM20.49,3.39s.11-.08.17-.08h0c.14,0,.25.1.26.24,0,.07-.02.13-.07.18-.04.05-.11.08-.17.08h0c-.14,0-.25-.11-.25-.25,0-.06.02-.12.07-.17h0Z"/>
        <path class="cls-1" d="m32.88,1.54h.02c.15,0,.29-.07.39-.18.06-.06.1-.14.13-.23h3.12s.06,0,.09,0l.09.09s0,0,0,.02v.56s0,.03,0,.03l-.09.08-.03.03s-.02.02-.03.02h-1.91s0,.01,0,.02v8.33c-.24.07-.41.29-.41.54v.02c.01.31.28.55.58.54.3-.01.53-.26.54-.56v-.02c0-.24-.17-.45-.41-.52V2.28s0,0,0,0h1.72s.04-.02.05-.03l.05-.05.22-.21.02-.02s.01,0,0-.02v-.86s0-.01-.01-.02l-.26-.25s-.02-.01-.04-.01h-3.29c-.07-.24-.29-.41-.54-.41h-.02c-.31.01-.55.27-.54.58.01.3.26.53.56.54h0Zm2.09,9.12s.08.11.08.17h0c0,.15-.11.26-.25.26-.06,0-.12-.02-.17-.07-.05-.05-.08-.11-.08-.17h0c0-.14.1-.25.24-.26.07,0,.13.02.18.07h0Zm-2.28-9.85s.11-.08.17-.08h0c.14,0,.25.1.26.24,0,.07-.02.13-.07.18-.05.05-.11.08-.17.08h0c-.14,0-.25-.11-.25-.25,0-.06.02-.12.07-.17h0Z"/>
        <path class="cls-1" d="m26.49,39.39v-2.09s0-.08,0-.13l.22-.22,2.86-2.86,1.43-1.43.37-.37.05-.05.03-.03h.01s0-.02,0-.03v-1.83s0-.02,0-.01h-.01s-.02.04-.02.04l-.05.05-.2.2-.39.39-.67.67-.23.23-.11.11s-.05.05-.09.08h-8.5s-.02,0-.02,0l-.03.03-.07.07-.44.44-1.62,1.62c-.16-.09-.37-.06-.5.07h-.01c-.16.18-.16.44.01.61.17.16.43.16.59-.01h.01c.13-.14.15-.34.06-.5l1.62-1.62.42-.42.04-.04.02-.02s.02,0,.03,0h8.49s0,0,.01,0h0s.02-.03.02-.03l.04-.04.07-.07.12-.12.23-.23.56-.56.22-.22.11-.11.03-.03h.01s0-.02,0-.02h0v1.18s-.04.05-.06.07l-.35.35-1.43,1.43-2.86,2.86-.28.28s0,.02,0,.03v2.29c-.21.06-.32.28-.26.49.06.21.28.32.49.26s.32-.28.26-.49c-.04-.12-.13-.22-.26-.26h0Zm-7.53-4.62h0c-.07.08-.19.08-.27,0-.03-.03-.05-.08-.05-.13,0-.05.02-.1.05-.13h0c.07-.08.19-.08.26,0,.08.07.08.19.01.27,0,0,0,0,0,0h0Zm7.42,5.18c-.1,0-.19-.08-.19-.18,0-.06.03-.12.08-.15h.21c.08.06.11.17.05.26-.03.05-.09.08-.15.08h0Z"/>
      </g>
      <g id="processor">
        <rect class="cls-1" x="21.81" y="17.75" width=".19" height=".96"/>
        <rect class="cls-1" x="21.18" y="17.75" width=".19" height=".96"/>
        <rect class="cls-1" x="22.45" y="17.75" width=".19" height=".96"/>
        <rect class="cls-1" x="23.09" y="17.75" width=".19" height=".96"/>
        <rect class="cls-1" x="23.73" y="17.75" width=".19" height=".96"/>
        <rect class="cls-1" x="24.36" y="17.75" width=".19" height=".96"/>
        <rect class="cls-1" x="25" y="17.75" width=".19" height=".96"/>
        <rect class="cls-1" x="25.64" y="17.75" width=".19" height=".96"/>
        <rect class="cls-1" x="26.27" y="17.75" width=".19" height=".96"/>
        <rect class="cls-1" x="26.91" y="17.75" width=".19" height=".96"/>
        <rect class="cls-1" x="21.81" y="25.39" width=".19" height=".96"/>
        <rect class="cls-1" x="21.18" y="25.39" width=".19" height=".96"/>
        <rect class="cls-1" x="22.45" y="25.39" width=".19" height=".96"/>
        <rect class="cls-1" x="23.09" y="25.39" width=".19" height=".96"/>
        <rect class="cls-1" x="23.73" y="25.39" width=".19" height=".96"/>
        <rect class="cls-1" x="24.36" y="25.39" width=".19" height=".96"/>
        <rect class="cls-1" x="25" y="25.39" width=".19" height=".96"/>
        <rect class="cls-1" x="25.64" y="25.39" width=".19" height=".96"/>
        <rect class="cls-1" x="26.27" y="25.39" width=".19" height=".96"/>
        <rect class="cls-1" x="26.91" y="25.39" width=".19" height=".96"/>
        <rect class="cls-1" x="19.84" y="24.82" width=".96" height=".19"/>
        <rect class="cls-1" x="19.84" y="24.18" width=".96" height=".19"/>
        <rect class="cls-1" x="19.84" y="23.55" width=".96" height=".19"/>
        <rect class="cls-1" x="19.84" y="22.91" width=".96" height=".19"/>
        <rect class="cls-1" x="19.84" y="22.27" width=".96" height=".19"/>
        <rect class="cls-1" x="19.84" y="21.63" width=".96" height=".19"/>
        <rect class="cls-1" x="19.84" y="21" width=".96" height=".19"/>
        <rect class="cls-1" x="19.84" y="20.36" width=".96" height=".19"/>
        <rect class="cls-1" x="19.84" y="19.72" width=".96" height=".19"/>
        <rect class="cls-1" x="19.84" y="19.08" width=".96" height=".19"/>
        <rect class="cls-1" x="27.48" y="24.18" width=".96" height=".19"/>
        <rect class="cls-1" x="27.48" y="24.82" width=".96" height=".19"/>
        <rect class="cls-1" x="27.48" y="23.55" width=".96" height=".19"/>
        <rect class="cls-1" x="27.48" y="22.91" width=".96" height=".19"/>
        <rect class="cls-1" x="27.48" y="22.27" width=".96" height=".19"/>
        <rect class="cls-1" x="27.48" y="21.63" width=".96" height=".19"/>
        <rect class="cls-1" x="27.48" y="21" width=".96" height=".19"/>
        <rect class="cls-1" x="27.48" y="20.36" width=".96" height=".19"/>
        <rect class="cls-1" x="27.48" y="19.72" width=".96" height=".19"/>
        <rect class="cls-1" x="27.48" y="19.08" width=".96" height=".19"/>
        <rect class="cls-1" x="20.52" y="18.38" width="7.23" height="7.34"/>
        <path class="cls-1" d="m27.89,25.86h-7.51v-7.62h7.51v7.62Zm-7.23-.28h6.94v-7.06h-6.94v7.06Z"/>
        <rect class="cls-1" x="21.15" y="19.06" width="5.97" height="5.97"/>
      </g>
      <g id="pixel_heart" data-name="pixel heart">
        <rect class="cls-1" x="25.31" y="20.02" width=".29" height=".29"/>
        <path class="cls-1" d="m25.61,20.32h-.31v-.31h.31v.31Zm-.29-.03h.26v-.26h-.26v.26Z"/>
        <rect class="cls-1" x="24.98" y="21" width=".29" height=".29"/>
        <path class="cls-1" d="m25.28,21.3h-.31v-.31h.31v.31Zm-.29-.03h.26v-.26h-.26v.26Z"/>
        <rect class="cls-1" x="24.32" y="21.66" width=".29" height=".29"/>
        <path class="cls-1" d="m24.62,21.96h-.32v-.31h.32v.31Zm-.29-.03h.26v-.26h-.26v.26Z"/>
        <rect class="cls-1" x="23.34" y="20.68" width=".29" height=".29"/>
        <path class="cls-1" d="m23.64,20.97h-.31v-.31h.31v.31Zm-.29-.03h.26v-.26h-.26v.26Z"/>
        <rect class="cls-1" x="24.65" y="20.02" width=".29" height=".29"/>
        <path class="cls-1" d="m24.95,20.32h-.31v-.31h.31v.31Zm-.29-.03h.26v-.26h-.26v.26Z"/>
        <rect class="cls-1" x="24.32" y="21" width=".29" height=".29"/>
        <path class="cls-1" d="m24.62,21.3h-.32v-.31h.32v.31Zm-.29-.03h.26v-.26h-.26v.26Z"/>
        <rect class="cls-1" x="23.67" y="21.66" width=".29" height=".29"/>
        <path class="cls-1" d="m23.97,21.96h-.31v-.31h.31v.31Zm-.29-.03h.26v-.26h-.26v.26Z"/>
        <rect class="cls-1" x="22.69" y="20.68" width=".29" height=".29"/>
        <path class="cls-1" d="m22.99,20.97h-.31v-.31h.31v.31Zm-.29-.03h.26v-.26h-.26v.26Z"/>
        <rect class="cls-1" x="24.65" y="21.99" width=".29" height=".29"/>
        <path class="cls-1" d="m24.95,22.29h-.31v-.31h.31v.31Zm-.29-.03h.26v-.26h-.26v.26Z"/>
        <rect class="cls-1" x="23.99" y="21.33" width=".29" height=".29"/>
        <path class="cls-1" d="m24.29,21.63h-.31v-.32h.31v.32Zm-.29-.03h.26v-.26h-.26v.26Z"/>
        <rect class="cls-1" x="25.63" y="20.68" width=".29" height=".29"/>
        <path class="cls-1" d="m25.93,20.97h-.31v-.31h.31v.31Zm-.29-.03h.26v-.26h-.26v.26Z"/>
        <rect class="cls-1" x="25.31" y="19.69" width=".29" height=".29"/>
        <path class="cls-1" d="m25.61,19.99h-.31v-.31h.31v.31Zm-.29-.03h.26v-.26h-.26v.26Z"/>
        <rect class="cls-1" x="23.99" y="20.35" width=".29" height=".29"/>
        <path class="cls-1" d="m24.29,20.65h-.31v-.31h.31v.31Zm-.29-.03h.26v-.26h-.26v.26Z"/>
        <rect class="cls-1" x="25.31" y="20.68" width=".29" height=".29"/>
        <path class="cls-1" d="m25.61,20.97h-.31v-.31h.31v.31Zm-.29-.03h.26v-.26h-.26v.26Z"/>
        <rect class="cls-1" x="24.98" y="19.69" width=".29" height=".29"/>
        <path class="cls-1" d="m25.28,19.99h-.31v-.31h.31v.31Zm-.29-.03h.26v-.26h-.26v.26Z"/>
        <rect class="cls-1" x="23.67" y="20.35" width=".29" height=".29"/>
        <path class="cls-1" d="m23.97,20.65h-.31v-.31h.31v.31Zm-.29-.03h.26v-.26h-.26v.26Z"/>
        <rect class="cls-1" x="24.32" y="21.99" width=".29" height=".29"/>
        <path class="cls-1" d="m24.62,22.29h-.32v-.31h.32v.31Zm-.29-.03h.26v-.26h-.26v.26Z"/>
        <rect class="cls-1" x="23.67" y="21.33" width=".29" height=".29"/>
        <path class="cls-1" d="m23.97,21.63h-.31v-.32h.31v.32Zm-.29-.03h.26v-.26h-.26v.26Z"/>
        <rect class="cls-1" x="25.63" y="20.02" width=".29" height=".29"/>
        <path class="cls-1" d="m25.93,20.32h-.31v-.31h.31v.31Zm-.29-.03h.26v-.26h-.26v.26Z"/>
        <rect class="cls-1" x="25.31" y="21" width=".29" height=".29"/>
        <path class="cls-1" d="m25.61,21.3h-.31v-.31h.31v.31Zm-.29-.03h.26v-.26h-.26v.26Z"/>
        <rect class="cls-1" x="24.65" y="21.66" width=".29" height=".29"/>
        <path class="cls-1" d="m24.95,21.96h-.31v-.31h.31v.31Zm-.29-.03h.26v-.26h-.26v.26Z"/>
        <rect class="cls-1" x="23.67" y="20.68" width=".29" height=".29"/>
        <path class="cls-1" d="m23.97,20.97h-.31v-.31h.31v.31Zm-.29-.03h.26v-.26h-.26v.26Z"/>
        <rect class="cls-1" x="25.63" y="20.35" width=".29" height=".29"/>
        <path class="cls-1" d="m25.93,20.65h-.31v-.31h.31v.31Zm-.29-.03h.26v-.26h-.26v.26Z"/>
        <rect class="cls-1" x="23.99" y="22.64" width=".29" height=".29"/>
        <path class="cls-1" d="m24.29,22.94h-.31v-.31h.31v.31Zm-.29-.03h.26v-.26h-.26v.26Z"/>
        <rect class="cls-1" x="23.67" y="21" width=".29" height=".29"/>
        <path class="cls-1" d="m23.97,21.3h-.31v-.31h.31v.31Zm-.29-.03h.26v-.26h-.26v.26Z"/>
        <rect class="cls-1" x="23.01" y="21.66" width=".29" height=".29"/>
        <path class="cls-1" d="m23.31,21.96h-.31v-.31h.31v.31Zm-.29-.03h.26v-.26h-.26v.26Z"/>
        <rect class="cls-1" x="23.67" y="20.02" width=".29" height=".29"/>
        <path class="cls-1" d="m23.97,20.32h-.31v-.31h.31v.31Zm-.29-.03h.26v-.26h-.26v.26Z"/>
        <rect class="cls-1" x="25.31" y="21.33" width=".29" height=".29"/>
        <path class="cls-1" d="m25.61,21.63h-.31v-.32h.31v.32Zm-.29-.03h.26v-.26h-.26v.26Z"/>
        <rect class="cls-1" x="23.34" y="20.02" width=".29" height=".29"/>
        <path class="cls-1" d="m23.64,20.32h-.31v-.31h.31v.31Zm-.29-.03h.26v-.26h-.26v.26Z"/>
        <rect class="cls-1" x="25.31" y="20.35" width=".29" height=".29"/>
        <path class="cls-1" d="m25.61,20.65h-.31v-.31h.31v.31Zm-.29-.03h.26v-.26h-.26v.26Z"/>
        <rect class="cls-1" x="23.34" y="21" width=".29" height=".29"/>
        <path class="cls-1" d="m23.64,21.3h-.31v-.31h.31v.31Zm-.29-.03h.26v-.26h-.26v.26Z"/>
        <rect class="cls-1" x="23.99" y="21.99" width=".29" height=".29"/>
        <path class="cls-1" d="m24.29,22.29h-.31v-.31h.31v.31Zm-.29-.03h.26v-.26h-.26v.26Z"/>
        <rect class="cls-1" x="23.34" y="21.33" width=".29" height=".29"/>
        <path class="cls-1" d="m23.64,21.63h-.31v-.32h.31v.32Zm-.29-.03h.26v-.26h-.26v.26Z"/>
        <rect class="cls-1" x="24.98" y="20.68" width=".29" height=".29"/>
        <path class="cls-1" d="m25.28,20.97h-.31v-.31h.31v.31Zm-.29-.03h.26v-.26h-.26v.26Z"/>
        <rect class="cls-1" x="24.65" y="19.69" width=".29" height=".29"/>
        <path class="cls-1" d="m24.95,19.99h-.31v-.31h.31v.31Zm-.29-.03h.26v-.26h-.26v.26Z"/>
        <rect class="cls-1" x="23.34" y="20.35" width=".29" height=".29"/>
        <path class="cls-1" d="m23.64,20.65h-.31v-.31h.31v.31Zm-.29-.03h.26v-.26h-.26v.26Z"/>
        <rect class="cls-1" x="24.65" y="20.68" width=".29" height=".29"/>
        <path class="cls-1" d="m24.95,20.97h-.31v-.31h.31v.31Zm-.29-.03h.26v-.26h-.26v.26Z"/>
        <rect class="cls-1" x="23.01" y="20.35" width=".29" height=".29"/>
        <path class="cls-1" d="m23.31,20.65h-.31v-.31h.31v.31Zm-.29-.03h.26v-.26h-.26v.26Z"/>
        <rect class="cls-1" x="23.67" y="21.99" width=".29" height=".29"/>
        <path class="cls-1" d="m23.97,22.29h-.31v-.31h.31v.31Zm-.29-.03h.26v-.26h-.26v.26Z"/>
        <rect class="cls-1" x="23.34" y="19.69" width=".29" height=".29"/>
        <path class="cls-1" d="m23.64,19.99h-.31v-.31h.31v.31Zm-.29-.03h.26v-.26h-.26v.26Z"/>
        <rect class="cls-1" x="23.01" y="21.33" width=".29" height=".29"/>
        <path class="cls-1" d="m23.31,21.63h-.31v-.32h.31v.32Zm-.29-.03h.26v-.26h-.26v.26Z"/>
        <rect class="cls-1" x="24.98" y="20.02" width=".29" height=".29"/>
        <path class="cls-1" d="m25.28,20.32h-.31v-.31h.31v.31Zm-.29-.03h.26v-.26h-.26v.26Z"/>
        <rect class="cls-1" x="24.65" y="21" width=".29" height=".29"/>
        <path class="cls-1" d="m24.95,21.3h-.31v-.31h.31v.31Zm-.29-.03h.26v-.26h-.26v.26Z"/>
        <rect class="cls-1" x="23.99" y="21.66" width=".29" height=".29"/>
        <path class="cls-1" d="m24.29,21.96h-.31v-.31h.31v.31Zm-.29-.03h.26v-.26h-.26v.26Z"/>
        <rect class="cls-1" x="23.01" y="20.68" width=".29" height=".29"/>
        <path class="cls-1" d="m23.31,20.97h-.31v-.31h.31v.31Zm-.29-.03h.26v-.26h-.26v.26Z"/>
        <rect class="cls-1" x="24.98" y="20.35" width=".29" height=".29"/>
        <path class="cls-1" d="m25.28,20.65h-.31v-.31h.31v.31Zm-.29-.03h.26v-.26h-.26v.26Z"/>
        <rect class="cls-1" x="24.32" y="22.32" width=".29" height=".29"/>
        <path class="cls-1" d="m24.62,22.62h-.32v-.31h.32v.31Zm-.29-.03h.26v-.26h-.26v.26Z"/>
        <rect class="cls-1" x="23.01" y="21" width=".29" height=".29"/>
        <path class="cls-1" d="m23.31,21.3h-.31v-.31h.31v.31Zm-.29-.03h.26v-.26h-.26v.26Z"/>
        <rect class="cls-1" x="24.98" y="21.33" width=".29" height=".29"/>
        <path class="cls-1" d="m25.28,21.63h-.31v-.32h.31v.32Zm-.29-.03h.26v-.26h-.26v.26Z"/>
        <rect class="cls-1" x="23.01" y="20.02" width=".29" height=".29"/>
        <path class="cls-1" d="m23.31,20.32h-.31v-.31h.31v.31Zm-.29-.03h.26v-.26h-.26v.26Z"/>
        <rect class="cls-1" x="24.65" y="21.33" width=".29" height=".29"/>
        <path class="cls-1" d="m24.95,21.63h-.31v-.32h.31v.32Zm-.29-.03h.26v-.26h-.26v.26Z"/>
        <rect class="cls-1" x="22.69" y="20.02" width=".29" height=".29"/>
        <path class="cls-1" d="m22.99,20.32h-.31v-.31h.31v.31Zm-.29-.03h.26v-.26h-.26v.26Z"/>
        <rect class="cls-1" x="24.65" y="20.35" width=".29" height=".29"/>
        <path class="cls-1" d="m24.95,20.65h-.31v-.31h.31v.31Zm-.29-.03h.26v-.26h-.26v.26Z"/>
        <rect class="cls-1" x="23.99" y="22.32" width=".29" height=".29"/>
        <path class="cls-1" d="m24.29,22.62h-.31v-.31h.31v.31Zm-.29-.03h.26v-.26h-.26v.26Z"/>
        <rect class="cls-1" x="22.69" y="21" width=".29" height=".29"/>
        <path class="cls-1" d="m22.99,21.3h-.31v-.31h.31v.31Zm-.29-.03h.26v-.26h-.26v.26Z"/>
        <rect class="cls-1" x="23.34" y="21.99" width=".29" height=".29"/>
        <path class="cls-1" d="m23.64,22.29h-.31v-.31h.31v.31Zm-.29-.03h.26v-.26h-.26v.26Z"/>
        <rect class="cls-1" x="23.01" y="19.69" width=".29" height=".29"/>
        <path class="cls-1" d="m23.31,19.99h-.31v-.31h.31v.31Zm-.29-.03h.26v-.26h-.26v.26Z"/>
        <rect class="cls-1" x="22.69" y="21.33" width=".29" height=".29"/>
        <path class="cls-1" d="m22.99,21.63h-.31v-.32h.31v.32Zm-.29-.03h.26v-.26h-.26v.26Z"/>
        <rect class="cls-1" x="24.32" y="20.68" width=".29" height=".29"/>
        <path class="cls-1" d="m24.62,20.97h-.32v-.31h.32v.31Zm-.29-.03h.26v-.26h-.26v.26Z"/>
        <rect class="cls-1" x="22.69" y="20.35" width=".29" height=".29"/>
        <path class="cls-1" d="m22.99,20.65h-.31v-.31h.31v.31Zm-.29-.03h.26v-.26h-.26v.26Z"/>
        <rect class="cls-1" x="25.63" y="21" width=".29" height=".29"/>
        <path class="cls-1" d="m25.93,21.3h-.31v-.31h.31v.31Zm-.29-.03h.26v-.26h-.26v.26Z"/>
        <rect class="cls-1" x="24.98" y="21.66" width=".29" height=".29"/>
        <path class="cls-1" d="m25.28,21.96h-.31v-.31h.31v.31Zm-.29-.03h.26v-.26h-.26v.26Z"/>
        <rect class="cls-1" x="23.99" y="20.68" width=".29" height=".29"/>
        <path class="cls-1" d="m24.29,20.97h-.31v-.31h.31v.31Zm-.29-.03h.26v-.26h-.26v.26Z"/>
        <rect class="cls-1" x="22.36" y="20.35" width=".29" height=".29"/>
        <path class="cls-1" d="m22.66,20.65h-.31v-.31h.31v.31Zm-.29-.03h.26v-.26h-.26v.26Z"/>
        <rect class="cls-1" x="22.69" y="19.69" width=".29" height=".29"/>
        <path class="cls-1" d="m22.99,19.99h-.31v-.31h.31v.31Zm-.29-.03h.26v-.26h-.26v.26Z"/>
        <rect class="cls-1" x="24.32" y="20.02" width=".29" height=".29"/>
        <path class="cls-1" d="m24.62,20.32h-.32v-.31h.32v.31Zm-.29-.03h.26v-.26h-.26v.26Z"/>
        <rect class="cls-1" x="23.99" y="21" width=".29" height=".29"/>
        <path class="cls-1" d="m24.29,21.3h-.31v-.31h.31v.31Zm-.29-.03h.26v-.26h-.26v.26Z"/>
        <rect class="cls-1" x="23.34" y="21.66" width=".29" height=".29"/>
        <path class="cls-1" d="m23.64,21.96h-.31v-.31h.31v.31Zm-.29-.03h.26v-.26h-.26v.26Z"/>
        <rect class="cls-1" x="22.36" y="20.68" width=".29" height=".29"/>
        <path class="cls-1" d="m22.66,20.97h-.31v-.31h.31v.31Zm-.29-.03h.26v-.26h-.26v.26Z"/>
        <rect class="cls-1" x="24.32" y="20.35" width=".29" height=".29"/>
        <path class="cls-1" d="m24.62,20.65h-.32v-.31h.32v.31Zm-.29-.03h.26v-.26h-.26v.26Z"/>
        <rect class="cls-1" x="23.67" y="22.32" width=".29" height=".29"/>
        <path class="cls-1" d="m23.97,22.62h-.31v-.31h.31v.31Zm-.29-.03h.26v-.26h-.26v.26Z"/>
        <rect class="cls-1" x="22.36" y="21" width=".29" height=".29"/>
        <path class="cls-1" d="m22.66,21.3h-.31v-.31h.31v.31Zm-.29-.03h.26v-.26h-.26v.26Z"/>
        <rect class="cls-1" x="24.32" y="21.33" width=".29" height=".29"/>
        <path class="cls-1" d="m24.62,21.63h-.32v-.32h.32v.32Zm-.29-.03h.26v-.26h-.26v.26Z"/>
        <rect class="cls-1" x="22.36" y="20.02" width=".29" height=".29"/>
        <path class="cls-1" d="m22.66,20.32h-.31v-.31h.31v.31Zm-.29-.03h.26v-.26h-.26v.26Z"/>
      </g>
    </g>
    <g id="Text">
      <text class="cls-2" transform="translate(21.94 24.5)"><tspan x="0" y="0">TECH</tspan></text>
    </g>
  </g>
</svg>